<?xml version="1.0" encoding="UTF-8"?>
<svg version="1.1" xmlns="http://www.w3.org/2000/svg" width="320" height="320">
<path d="M0 0 C18.48532024 16.30582834 31.48891592 40.31604351 34 65 C35.48215958 95.74764791 30.43637824 123.57821216 9.5625 147.25 C8.05102068 148.84226528 6.53012121 150.42564059 5 152 C3.86304688 153.24716797 3.86304688 153.24716797 2.703125 154.51953125 C-14.0100567 172.29776865 -39.38199489 183.41729096 -63.6796875 184.37109375 C-95.19061029 184.91348417 -122.50209101 176.90400327 -145.59570312 154.81787109 C-151.46559749 149.02422933 -156.80670501 143.1415499 -161 136 C-161.35400879 135.39849121 -161.70801758 134.79698242 -162.07275391 134.17724609 C-172.20367708 116.71233246 -177.42177723 98.99406017 -177.3125 78.6875 C-177.30758545 77.59518066 -177.3026709 76.50286133 -177.29760742 75.37744141 C-177.17512542 66.89917477 -176.33367423 59.18667974 -174 51 C-173.6596875 49.77539062 -173.319375 48.55078125 -172.96875 47.2890625 C-168.26180253 31.86426842 -160.49868303 19.15380771 -150 7 C-149.03320312 5.87851563 -149.03320312 5.87851563 -148.046875 4.734375 C-108.56506112 -37.49399984 -42.48741609 -35.85389693 0 0 Z M-122 23 C-122.68449219 23.59167969 -123.36898437 24.18335937 -124.07421875 24.79296875 C-137.04028169 36.74008765 -145.6025236 54.76993246 -146.3359375 72.3828125 C-146.69081393 94.69181099 -141.31431328 114.42809877 -125.90625 131.09765625 C-114.66929634 142.61024755 -101.63541408 148.87291718 -86 152 C-86 141.11 -86 130.22 -86 119 C-90.45854609 119.74309102 -93.72173551 120.4959313 -97.8359375 122.06640625 C-98.7954834 122.42935791 -99.7550293 122.79230957 -100.74365234 123.16625977 C-101.94199707 123.62701904 -103.1403418 124.08777832 -104.375 124.5625 C-108.21125 126.026875 -112.0475 127.49125 -116 129 C-116 119.76 -116 110.52 -116 101 C-112.7 100.01 -109.4 99.02 -106 98 C-104.29388173 97.42368142 -102.59246317 96.83261185 -100.90234375 96.2109375 C-100.08185547 95.90929687 -99.26136719 95.60765625 -98.41601562 95.296875 C-97.59810547 94.99265625 -96.78019531 94.6884375 -95.9375 94.375 C-95.08478516 94.06304687 -94.23207031 93.75109375 -93.35351562 93.4296875 C-89.3831187 92.21048343 -89.3831187 92.21048343 -86 90 C-85.95919217 88.00041636 -85.95745644 85.99954746 -86 84 C-89.82263641 84.66627478 -93.31304378 85.73962107 -96.95703125 87.06640625 C-97.95968018 87.42935791 -98.9623291 87.79230957 -99.99536133 88.16625977 C-101.25501709 88.62701904 -102.51467285 89.08777832 -103.8125 89.5625 C-107.834375 91.026875 -111.85625 92.49125 -116 94 C-115.67 85.09 -115.34 76.18 -115 67 C-105.5625 63.25 -105.5625 63.25 -102.64672852 62.09472656 C-97.03702536 59.85794257 -91.49854228 57.49758026 -86 55 C-86 53.02 -86 51.04 -86 49 C-95.88501198 51.7548394 -105.3905672 55.41338071 -115 59 C-115.495 45.14 -115.495 45.14 -116 31 C-114.35 30.67 -112.7 30.34 -111 30 C-109.73330279 29.57021084 -108.47820203 29.10435675 -107.23876953 28.60131836 C-106.54099396 28.32110336 -105.84321838 28.04088837 -105.1242981 27.75218201 C-104.38460785 27.45111038 -103.6449176 27.15003876 -102.8828125 26.83984375 C-101.29054477 26.20462627 -99.69809098 25.56987503 -98.10546875 24.93554688 C-95.61292875 23.93769627 -93.12201273 22.93628746 -90.63427734 21.92651367 C-88.22129166 20.94932852 -85.80266938 19.9873638 -83.3828125 19.02734375 C-82.64717072 18.72424789 -81.91152893 18.42115204 -81.15359497 18.10887146 C-74.12677344 15.34374337 -68.75891015 15.34370032 -61.79510498 18.2869873 C-60.68223114 18.77914734 -60.68223114 18.77914734 -59.546875 19.28125 C-58.76483704 19.61419067 -57.98279907 19.94713135 -57.17706299 20.29016113 C-54.69613049 21.34834353 -52.22284483 22.42306933 -49.75 23.5 C-47.26188899 24.57436787 -44.77232822 25.64507849 -42.28009033 26.70983887 C-40.73377649 27.37139561 -39.19000003 28.03892196 -37.64910889 28.7130127 C-33.47757275 30.51029252 -33.47757275 30.51029252 -29 31 C-29 40.24 -29 49.48 -29 59 C-39.0918197 55.6360601 -39.0918197 55.6360601 -42.7109375 54.17578125 C-43.48050781 53.86962891 -44.25007813 53.56347656 -45.04296875 53.24804688 C-46.62189542 52.61462487 -48.19999858 51.97914691 -49.77734375 51.34179688 C-50.53917969 51.03951172 -51.30101562 50.73722656 -52.0859375 50.42578125 C-52.7670459 50.15161377 -53.4481543 49.87744629 -54.14990234 49.5949707 C-56.15209 48.84692628 -56.15209 48.84692628 -59 49 C-59 50.98 -59 52.96 -59 55 C-55.0058625 56.68095917 -51.00464558 58.34423308 -47 60 C-46.01386719 60.40871338 -46.01386719 60.40871338 -45.0078125 60.82568359 C-42.98674357 61.66053606 -40.96258314 62.48743866 -38.9375 63.3125 C-38.29482178 63.57885254 -37.65214355 63.84520508 -36.98999023 64.11962891 C-34.15373624 65.26739424 -32.0924728 66 -29 66 C-29 75.24 -29 84.48 -29 94 C-32.155625 92.906875 -35.31125 91.81375 -38.5625 90.6875 C-40.0331189 90.18029419 -40.0331189 90.18029419 -41.53344727 89.6628418 C-45.40514597 88.31444019 -49.22131229 86.94481328 -52.96484375 85.26953125 C-55.91294673 83.80706019 -55.91294673 83.80706019 -59 84 C-59 85.98 -59 87.96 -59 90 C-55.878017 91.27833161 -52.75188878 92.54622092 -49.625 93.8125 C-48.75488281 94.16892578 -47.88476562 94.52535156 -46.98828125 94.89257812 C-46.11816406 95.24384766 -45.24804688 95.59511719 -44.3515625 95.95703125 C-43.17327881 96.43619995 -43.17327881 96.43619995 -41.97119141 96.92504883 C-37.70946084 98.46690583 -33.34093703 99.69771889 -29 101 C-28.67 110.24 -28.34 119.48 -28 129 C-47.05688623 122.74251497 -47.05688623 122.74251497 -54.15234375 119.6640625 C-56.14330447 118.83088687 -56.14330447 118.83088687 -59 119 C-59 130.22 -59 141.44 -59 153 C-34.78636497 146.54303066 -17.74761275 136.28637843 -4.82421875 114.52734375 C4.45909152 96.57696007 6.45120476 76.39908076 1 57 C-5.66586364 36.98381531 -19.17586348 20.72138505 -38 11 C-66.24968385 -1.99750712 -98.77739148 2.05491525 -122 23 Z " fill="#000000" transform="translate(231,81)"/>
<path d="M0 0 C9.57 0 19.14 0 29 0 C30.32275713 3.96827138 31.36515554 7.55712653 32.19067383 11.60693359 C36.28795243 31.23425694 45.20331206 47.68508833 58 63 C58.77730469 63.99773437 58.77730469 63.99773437 59.5703125 65.015625 C75.93867625 85.24988371 103.66859128 97.81833364 129 101 C143.90500923 101.72546505 159.59932061 102.3219536 174 98 C175.19496094 97.67128906 176.38992187 97.34257812 177.62109375 97.00390625 C193.20825209 92.31640494 206.54922679 84.3459147 219 74 C219.67289063 73.47921875 220.34578125 72.9584375 221.0390625 72.421875 C241.56659069 56.11233206 253.38450674 27.88372011 257.640625 2.6875 C258 1 258 1 259 0 C261.14558827 -0.08775605 263.29404421 -0.10695219 265.44140625 -0.09765625 C266.74658203 -0.09443359 268.05175781 -0.09121094 269.39648438 -0.08789062 C270.7851569 -0.07953401 272.17382877 -0.07106905 273.5625 -0.0625 C274.95507656 -0.05748666 276.34765481 -0.05292347 277.74023438 -0.04882812 C281.1601987 -0.03699434 284.58007844 -0.0205088 288 0 C288.23705717 7.6574403 287.8672942 14.62809052 286 22.0625 C285.78069824 22.95517578 285.56139648 23.84785156 285.33544922 24.76757812 C275.40703087 63.02337362 249.98036831 94.42937699 216.30297852 114.4753418 C207.24468661 119.70721921 197.92195781 123.71601521 188 127 C187.26861816 127.2582959 186.53723633 127.5165918 185.78369141 127.78271484 C171.99712701 132.47671895 157.84320569 132.52602263 143.4375 132.625 C142.48821625 132.63812225 141.5389325 132.65124451 140.56088257 132.6647644 C122.93971577 132.85347507 105.99552511 130.20111205 89.6875 123.25 C88.87539062 122.91347412 88.06328125 122.57694824 87.2265625 122.23022461 C69.14132103 114.53373736 54.17835066 103.49530603 40 90 C39.35417969 89.40703125 38.70835938 88.8140625 38.04296875 88.203125 C27.73937375 78.45452458 20.4802356 66.48307741 14 54 C13.67902344 53.39462402 13.35804687 52.78924805 13.02734375 52.16552734 C4.45775894 35.83759981 0 18.38273268 0 0 Z " fill="#000000" transform="translate(16,172)"/>
<path d="M0 0 C2.30318038 1.17287459 3.19312298 2.28691146 4.62329102 4.43457031 C5.11104004 5.16111816 5.59878906 5.88766602 6.10131836 6.63623047 C6.8624292 7.81838135 6.8624292 7.81838135 7.63891602 9.02441406 C8.1682373 9.83571777 8.69755859 10.64702148 9.24291992 11.48291016 C18.81963976 26.41979953 25.967654 42.48219421 30.26391602 59.71191406 C30.43181641 60.36023193 30.5997168 61.0085498 30.77270508 61.67651367 C32.24686792 68.05791946 31.88891602 72.9969438 31.88891602 79.96191406 C21.98891602 79.96191406 12.08891602 79.96191406 1.88891602 79.96191406 C1.06391602 76.20816406 0.23891602 72.45441406 -0.61108398 68.58691406 C-4.35685472 52.52239424 -10.11775308 34.95524497 -22.11108398 22.96191406 C-21.73629708 17.11818698 -15.66328715 13.00279209 -11.79858398 9.14941406 C-10.93040039 8.25287109 -10.0622168 7.35632813 -9.16772461 6.43261719 C-8.32790039 5.59021484 -7.48807617 4.7478125 -6.62280273 3.87988281 C-5.85411865 3.10410889 -5.08543457 2.32833496 -4.29345703 1.52905273 C-2.11108398 -0.03808594 -2.11108398 -0.03808594 0 0 Z " fill="#000000" transform="translate(272.111083984375,67.0380859375)"/>
<path d="M0 0 C0 9.9 0 19.8 0 30 C-4.2075 30.804375 -4.2075 30.804375 -8.5 31.625 C-24.60554035 34.92649717 -41.0131603 40.86754905 -54.125 51.0625 C-57 53 -57 53 -59.40307617 52.86669922 C-62.56097209 51.81278077 -64.0799224 50.4221431 -66.42578125 48.0703125 C-67.22177734 47.27496094 -68.01777344 46.47960938 -68.83789062 45.66015625 C-69.65451172 44.82355469 -70.47113281 43.98695312 -71.3125 43.125 C-72.14845703 42.29613281 -72.98441406 41.46726563 -73.84570312 40.61328125 C-80 34.39367347 -80 34.39367347 -80 31 C-78.03550422 29.29948334 -76.13136541 27.84068566 -74 26.375 C-73.37279053 25.93768555 -72.74558105 25.50037109 -72.09936523 25.04980469 C-50.57089761 10.30959262 -26.30171037 0 0 0 Z " fill="#000000" transform="translate(147,16)"/>
<path d="M0 0 C6.58660254 0.76739928 9.89380667 5.23363246 14.375 9.75 C15.64150391 10.96816406 15.64150391 10.96816406 16.93359375 12.2109375 C17.72636719 13.00242187 18.51914063 13.79390625 19.3359375 14.609375 C20.42720947 15.6917041 20.42720947 15.6917041 21.54052734 16.79589844 C23 19 23 19 22.84277344 21.58764648 C21.70060057 24.85700051 19.83917129 27.49677217 17.875 30.3125 C7.8968268 45.26280708 3.20186298 61.38975359 0 79 C-9.9 79 -19.8 79 -30 79 C-30 70.87330131 -29.91478626 64.55731029 -28 56.9375 C-27.77924805 56.04264893 -27.55849609 55.14779785 -27.33105469 54.22583008 C-22.18944391 34.47167798 -12.49795755 16.07366748 0 0 Z " fill="#000000" transform="translate(46,68)"/>
<path d="M0 0 C8.03017896 0 14.05044177 0.00411275 21.5 2 C22.76577881 2.33004028 22.76577881 2.33004028 24.05712891 2.66674805 C43.47876917 7.96699024 62.81738578 16.51911487 78 30 C78.495 31.485 78.495 31.485 79 33 C76.1057978 37.89229159 71.24922732 41.65065678 66.96875 45.2890625 C64.16594984 47.72482931 61.59235026 50.34284098 59 53 C55.01241525 51.5638863 51.72995469 49.62714626 48.1875 47.3125 C33.24248161 37.87809232 17.3354775 33.151905 0 30 C0 20.1 0 10.2 0 0 Z " fill="#000000" transform="translate(173,16)"/>
</svg>
