<?xml version="1.0" encoding="UTF-8"?>
<svg version="1.1" xmlns="http://www.w3.org/2000/svg" width="170" height="170">
<path d="M0 0 C5.71032726 3.11831235 9.08346035 3.48339791 15.41015625 2.43359375 C17.625 2.1875 17.625 2.1875 20.1875 3.4375 C21.65862473 6.25182556 21.92200124 8.01463194 22.3125 11.125 C23.16963936 16.93964808 25.65052461 20.54051229 29.09326172 25.2175293 C40.96625941 41.48625514 44.8317552 61.64456237 42.34375 81.42333984 C39.92391161 96.78450146 33.11394222 110.72428845 22.625 122.1875 C22.03460938 122.86941406 21.44421875 123.55132812 20.8359375 124.25390625 C11.20418083 134.72587999 -0.82865223 140.60125888 -14.375 144.1875 C-15.29667969 144.43242187 -16.21835938 144.67734375 -17.16796875 144.9296875 C-35.67091187 149.01657055 -53.81862159 145.66343848 -70.2734375 136.79296875 C-73.00867803 135.37712006 -75.56573392 134.34071871 -78.5 133.4375 C-81.64582674 132.46281899 -84.07856097 131.66765416 -86.375 129.1875 C-86.6225 128.32125 -86.87 127.455 -87.125 126.5625 C-88.40742637 123.09994879 -89.57223293 121.70094035 -92.0625 119.0625 C-99.26016907 111.27593074 -103.97709865 102.5098944 -106.375 92.1875 C-107.27798828 92.47753906 -107.27798828 92.47753906 -108.19921875 92.7734375 C-110.375 93.1875 -110.375 93.1875 -113.1875 91.8125 C-115.65966737 88.84589916 -115.69898495 88.2470607 -115.4375 84.5625 C-115.16015625 82.2109375 -115.16015625 82.2109375 -114.375 80.1875 C-112.30859375 78.9140625 -112.30859375 78.9140625 -110.375 78.1875 C-110.40980469 77.218125 -110.44460937 76.24875 -110.48046875 75.25 C-111.08139781 51.16124281 -104.2805856 30.47206865 -87.5 12.8125 C-64.79690253 -8.83790362 -27.81605881 -15.33700222 0 0 Z M-87.375 18.1875 C-88.37273437 19.13689453 -88.37273437 19.13689453 -89.390625 20.10546875 C-102.58867216 33.5710439 -107.37598827 54.26557302 -107.60546875 72.39453125 C-107.6665059 75.32703449 -107.6665059 75.32703449 -105.375 77.1875 C-102.34319086 76.17689695 -99.96924169 75.37162819 -98.47558594 72.39526367 C-96.3360318 65.57100951 -95.10560088 58.70975046 -94.00195312 51.65234375 C-93.11752173 46.53818394 -92.44446673 42.7390346 -88.375 39.1875 C-85.83082036 37.83242824 -83.22446095 36.86731603 -80.5 35.9375 C-79.80519531 35.68226562 -79.11039063 35.42703125 -78.39453125 35.1640625 C-74.41221431 33.739128 -70.58687983 32.74204217 -66.375 32.1875 C-66.375 31.5275 -66.375 30.8675 -66.375 30.1875 C-60.1046467 28.86107911 -60.1046467 28.86107911 -57 30.25 C-54.86068235 32.8007249 -54.6654338 34.92011975 -54.375 38.1875 C-52.70389958 35.22571227 -52.04817248 32.81678808 -51.75 29.4375 C-51.67523438 28.63828125 -51.60046875 27.8390625 -51.5234375 27.015625 C-51.47445312 26.41234375 -51.42546875 25.8090625 -51.375 25.1875 C-44.31170886 24.01028481 -44.31170886 24.01028481 -41.0625 24.625 C-38.29218664 27.19010496 -37.46356667 30.64141161 -36.375 34.1875 C-33.675 29.25416667 -33.675 29.25416667 -32.375 19.1875 C-20.825 15.2275 -9.275 11.2675 2.625 7.1875 C2.625 6.1975 2.625 5.2075 2.625 4.1875 C0.150253 3.05184923 -2.32913152 1.92901892 -4.8125 0.8125 C-5.50021484 0.49539062 -6.18792969 0.17828125 -6.89648438 -0.1484375 C-35.17387825 -12.77462267 -66.59828918 -3.06140879 -87.375 18.1875 Z M12.84667969 6.64794922 C9.86282764 10.05872163 8.06722415 13.76973814 6.078125 17.8203125 C5.66205994 18.65335907 5.24599487 19.48640564 4.81732178 20.34469604 C3.94293652 22.09949098 3.07242653 23.8562216 2.20556641 25.61474609 C0.87413259 28.3142587 -0.47010019 31.00709745 -1.81640625 33.69921875 C-2.66482048 35.4058734 -3.51250252 37.11289228 -4.359375 38.8203125 C-4.96395538 40.03281174 -4.96395538 40.03281174 -5.58074951 41.26980591 C-5.94823303 42.01753265 -6.31571655 42.7652594 -6.69433594 43.53564453 C-7.18253815 44.52348434 -7.18253815 44.52348434 -7.68060303 45.53128052 C-8.50388574 47.19559148 -8.50388574 47.19559148 -8.375 49.1875 C0.92320555 46.94174696 9.72448344 43.63826489 18.625 40.1875 C18.31664958 35.66637367 18.00258319 31.14566171 17.6875 26.625 C17.60048828 25.34818359 17.51347656 24.07136719 17.42382812 22.75585938 C17.33681641 21.51513672 17.24980469 20.27441406 17.16015625 18.99609375 C17.081604 17.85970459 17.00305176 16.72331543 16.92211914 15.55249023 C16.61488177 12.07290709 16.14899969 8.64052358 15.625 5.1875 C14.37027228 5.08172367 14.37027228 5.08172367 12.84667969 6.64794922 Z M0.625 10.1875 C-3.19651821 11.41102698 -7.00515215 12.67063027 -10.8125 13.9375 C-11.90111328 14.28554688 -12.98972656 14.63359375 -14.11132812 14.9921875 C-15.14580078 15.34023438 -16.18027344 15.68828125 -17.24609375 16.046875 C-18.68359985 16.51818848 -18.68359985 16.51818848 -20.15014648 16.99902344 C-20.88434814 17.3912207 -21.6185498 17.78341797 -22.375 18.1875 C-22.705 19.5075 -23.035 20.8275 -23.375 22.1875 C-18.92 21.6925 -18.92 21.6925 -14.375 21.1875 C-14.52646484 21.97922607 -14.67792969 22.77095215 -14.83398438 23.58666992 C-15.51904095 27.18189953 -16.19709067 30.77841618 -16.875 34.375 C-17.23271484 36.24381836 -17.23271484 36.24381836 -17.59765625 38.15039062 C-17.82324219 39.35244141 -18.04882812 40.55449219 -18.28125 41.79296875 C-18.49072266 42.89793701 -18.70019531 44.00290527 -18.91601562 45.14135742 C-19.32953206 47.8857428 -19.46509749 50.41925475 -19.375 53.1875 C-17.395 52.6925 -17.395 52.6925 -15.375 52.1875 C-14.51826433 47.52482247 -13.66382318 42.86173261 -12.81152344 38.19824219 C-12.52114174 36.611212 -12.23012884 35.02429718 -11.93847656 33.4375 C-11.51983037 31.1591534 -11.10344184 28.88040416 -10.6875 26.6015625 C-10.55625732 25.89005035 -10.42501465 25.17853821 -10.28979492 24.44546509 C-9.61095378 20.83970393 -9.61095378 20.83970393 -9.375 17.1875 C-5.745 16.1975 -2.115 15.2075 1.625 14.1875 C1.295 12.8675 0.965 11.5475 0.625 10.1875 Z M-2.375 22.1875 C-3.97855101 25.69526784 -4.59536864 28.33104879 -4.375 32.1875 C-1.73034962 29.0620041 -0.53085285 26.09961733 0.625 22.1875 C-0.365 22.1875 -1.355 22.1875 -2.375 22.1875 Z M23.625 24.1875 C24.12 34.5825 24.12 34.5825 24.625 45.1875 C20.266554 46.75847878 15.90727576 48.32651858 11.54516602 49.88720703 C10.06148059 50.41902998 8.57840175 50.95254836 7.09594727 51.48779297 C4.96527708 52.25674592 2.8325015 53.01957986 0.69921875 53.78125 C-0.2946862 54.14216736 -0.2946862 54.14216736 -1.30867004 54.51037598 C-4.14563085 55.51740715 -6.33826217 56.1875 -9.375 56.1875 C-9.375 56.8475 -9.375 57.5075 -9.375 58.1875 C-10.97615576 58.4368357 -12.58120159 58.66128648 -14.1875 58.875 C-15.08082031 59.00261719 -15.97414063 59.13023438 -16.89453125 59.26171875 C-19.375 59.1875 -19.375 59.1875 -21.2421875 58.1015625 C-22.96682737 55.18751583 -22.27234478 53.16428622 -21.6875 49.875 C-21.47996094 48.63878906 -21.27242188 47.40257812 -21.05859375 46.12890625 C-20.94499512 45.48453613 -20.83139648 44.84016602 -20.71435547 44.17626953 C-20.15495929 40.89796648 -19.70905728 37.60631976 -19.25 34.3125 C-18.95833333 32.27083333 -18.66666667 30.22916667 -18.375 28.1875 C-19.035 28.5175 -19.695 28.8475 -20.375 29.1875 C-21.11256307 31.42117246 -21.11256307 31.42117246 -21.62890625 34.1484375 C-21.84353516 35.17839844 -22.05816406 36.20835938 -22.27929688 37.26953125 C-22.49650391 38.35621094 -22.71371094 39.44289063 -22.9375 40.5625 C-23.15857422 41.61050781 -23.37964844 42.65851562 -23.60742188 43.73828125 C-24.99900297 50.54063232 -25.90534528 57.26073918 -26.375 64.1875 C-29.39507881 65.15502053 -32.19077039 66.01682103 -35.375 66.1875 C-38.74141516 63.73282228 -40.0613358 62.12849261 -41.375 58.1875 C-42.035 58.1875 -42.695 58.1875 -43.375 58.1875 C-44.035 62.4775 -44.695 66.7675 -45.375 71.1875 C-46.59703125 71.42210937 -47.8190625 71.65671875 -49.078125 71.8984375 C-56.45950256 73.537138 -63.43242615 76.41438261 -70.48828125 79.0859375 C-71.55949219 79.48296875 -72.63070312 79.88 -73.734375 80.2890625 C-74.69827148 80.65338379 -75.66216797 81.01770508 -76.65527344 81.39306641 C-80.19274551 82.4263639 -83.0225142 82.8637429 -86.375 81.1875 C-86.9525 81.909375 -87.53 82.63125 -88.125 83.375 C-92.2173352 87.55085224 -98.01074804 89.17697494 -103.375 91.1875 C-100.51776063 102.96734654 -94.40129539 112.18425697 -86.375 121.1875 C-86.045 121.1875 -85.715 121.1875 -85.375 121.1875 C-85.17136841 119.95447144 -85.17136841 119.95447144 -84.96362305 118.6965332 C-84.45194824 115.62929933 -83.93089709 112.56384514 -83.40356445 109.49926758 C-83.06717768 107.52741983 -82.74151932 105.55375159 -82.41601562 103.58007812 C-82.20009766 102.33291016 -81.98417969 101.08574219 -81.76171875 99.80078125 C-81.56795654 98.65391846 -81.37419434 97.50705566 -81.17456055 96.32543945 C-80.30481375 92.91204845 -79.64732172 90.89129693 -77.375 88.1875 C-74.68309557 86.66329872 -71.85914206 85.65806844 -68.9453125 84.63671875 C-68.117966 84.33304886 -67.29061951 84.02937897 -66.4382019 83.71650696 C-64.69107498 83.07916077 -62.9409002 82.45011618 -61.18798828 81.82885742 C-58.50984361 80.8784931 -55.84259008 79.90158891 -53.17578125 78.91992188 C-51.47453355 78.30309868 -49.77272772 77.68781226 -48.0703125 77.07421875 C-46.87633347 76.63839729 -46.87633347 76.63839729 -45.65823364 76.19377136 C-36.87898765 73.10469453 -36.87898765 73.10469453 -32.0625 75.1875 C-31.505625 75.5175 -30.94875 75.8475 -30.375 76.1875 C-30.21 75.23875 -30.045 74.29 -29.875 73.3125 C-28.375 70.1875 -28.375 70.1875 -26.6015625 69.203125 C-22.672541 68.00543071 -22.672541 68.00543071 -20.375 68.1875 C-18.21533203 69.80419922 -18.21533203 69.80419922 -16.375 72.1875 C-16.28808594 75.12011719 -16.28808594 75.12011719 -16.859375 78.484375 C-17.05273438 79.68964844 -17.24609375 80.89492187 -17.4453125 82.13671875 C-17.66960937 83.39097656 -17.89390625 84.64523438 -18.125 85.9375 C-18.33382812 87.20722656 -18.54265625 88.47695312 -18.7578125 89.78515625 C-19.27688792 92.9232031 -19.8166169 96.05624965 -20.375 99.1875 C-16.80496198 96.5241383 -16.46995086 93.03608323 -15.76953125 88.89453125 C-15.64059982 88.18850266 -15.5116684 87.48247406 -15.37882996 86.75505066 C-14.97059974 84.50520189 -14.57886939 82.25283659 -14.1875 80 C-13.91319295 78.47181031 -13.63781467 76.94381249 -13.36132812 75.41601562 C-12.68677999 71.67528781 -12.02701195 67.93221882 -11.375 64.1875 C-7.34196354 62.7292937 -3.30357364 61.28739163 0.74047852 59.86010742 C2.11444638 59.372654 3.48687355 58.88083443 4.85766602 58.38452148 C6.8321751 57.67048973 8.81175367 56.97251711 10.79296875 56.27734375 C11.98172607 55.85316162 13.1704834 55.42897949 14.39526367 54.99194336 C17.71926918 54.16402 19.41136187 54.11327924 22.625 55.1875 C23.615 55.8475 24.605 56.5075 25.625 57.1875 C24.60913821 64.9481875 22.08929953 70.69074086 18 77.3125 C17.484375 78.17359375 16.96875 79.0346875 16.4375 79.921875 C15.17944848 82.01862753 13.908765 84.10642913 12.625 86.1875 C13.83736328 87.34765625 13.83736328 87.34765625 15.07421875 88.53125 C18.94704011 92.56420333 18.65172875 95.84174993 18.625 101.1875 C17.92375 101.36925781 17.2225 101.55101563 16.5 101.73828125 C11.99314349 102.93235329 7.57926307 104.13334244 3.25 105.875 C-0.375 107.1875 -0.375 107.1875 -3 107.125 C-5.91192077 107.20162949 -7.14788728 108.36118526 -9.44140625 110.03515625 C-15.38082171 113.57480789 -22.59996317 115.1893919 -29.375 116.1875 C-29.375 116.8475 -29.375 117.5075 -29.375 118.1875 C-32.73299091 118.84605744 -35.94799522 119.32395042 -39.375 119.1875 C-42.375 116.875 -42.375 116.875 -44.375 114.1875 C-45.365 113.1975 -45.365 113.1975 -46.375 112.1875 C-48.38802989 112.75341298 -48.38802989 112.75341298 -50.375 114.1875 C-51.51348908 117.04531443 -51.51348908 117.04531443 -52.125 120.3125 C-52.36734375 121.40820312 -52.6096875 122.50390625 -52.859375 123.6328125 C-53.02953125 124.47585937 -53.1996875 125.31890625 -53.375 126.1875 C-56.84 126.6825 -56.84 126.6825 -60.375 127.1875 C-60.375 127.8475 -60.375 128.5075 -60.375 129.1875 C-63.675 130.1775 -66.975 131.1675 -70.375 132.1875 C-63.17978951 140.39562847 -49.82078602 142.81389226 -39.3125 143.9375 C-25.15985193 144.81897981 -9.44183969 141.99679437 2.625 134.1875 C1.965 133.5275 1.305 132.8675 0.625 132.1875 C0 130.0625 0 130.0625 -0.375 128.1875 C1.275 128.1875 2.925 128.1875 4.625 128.1875 C4.955 129.1775 5.285 130.1675 5.625 131.1875 C17.84315777 127.07815557 26.37536114 114.13432466 32.1875 103.265625 C37.62977059 92.58289337 37.62977059 92.58289337 37.625 81.1875 C37.625 81.8475 37.625 82.5075 37.625 83.1875 C36.635 83.1875 35.645 83.1875 34.625 83.1875 C34.955 82.1975 35.285 81.2075 35.625 80.1875 C35.295 79.1975 34.965 78.2075 34.625 77.1875 C35.945 77.1875 37.265 77.1875 38.625 77.1875 C38.955 77.8475 39.285 78.5075 39.625 79.1875 C40.10937193 66.80910612 39.4171433 56.01006441 35.625 44.1875 C35.32464844 43.24261719 35.02429688 42.29773438 34.71484375 41.32421875 C32.42314963 34.94517407 28.88758529 29.44580732 24.625 24.1875 C24.295 24.1875 23.965 24.1875 23.625 24.1875 Z M-30.375 21.1875 C-31.11380198 23.75038824 -31.11380198 23.75038824 -31.62890625 26.8671875 C-31.84353516 28.02347656 -32.05816406 29.17976563 -32.27929688 30.37109375 C-32.49650391 31.58925781 -32.71371094 32.80742188 -32.9375 34.0625 C-33.37465701 36.45603021 -33.81338656 38.8492739 -34.25390625 41.2421875 C-34.4454126 42.30937012 -34.63691895 43.37655273 -34.83422852 44.47607422 C-35.375 47.1875 -35.375 47.1875 -36.375 50.1875 C-39.015 42.2675 -41.655 34.3475 -44.375 26.1875 C-48.46193824 27.67733259 -48.46193824 27.67733259 -49.28125 30.453125 C-49.4771875 31.43796875 -49.673125 32.4228125 -49.875 33.4375 C-50.22498047 35.15839844 -50.22498047 35.15839844 -50.58203125 36.9140625 C-50.84789442 38.338255 -51.11203409 39.7627697 -51.375 41.1875 C-51.54563965 42.08436523 -51.7162793 42.98123047 -51.89208984 43.90527344 C-52.81862857 48.77914325 -53.72734734 53.65622721 -54.60546875 58.5390625 C-54.75395264 59.36229004 -54.90243652 60.18551758 -55.05541992 61.03369141 C-55.44838608 63.319187 -55.44838608 63.319187 -55.375 66.1875 C-53.395 65.6925 -53.395 65.6925 -51.375 65.1875 C-51.15565796 64.02178467 -51.15565796 64.02178467 -50.93188477 62.83251953 C-50.27017172 59.32525667 -49.60389505 55.81887614 -48.9375 52.3125 C-48.70740234 51.08917969 -48.47730469 49.86585937 -48.24023438 48.60546875 C-47.90668945 46.85556641 -47.90668945 46.85556641 -47.56640625 45.0703125 C-47.36217041 43.99152832 -47.15793457 42.91274414 -46.94750977 41.80126953 C-46.375 39.1875 -46.375 39.1875 -45.375 37.1875 C-43.065 44.4475 -40.755 51.7075 -38.375 59.1875 C-35.9 58.6925 -35.9 58.6925 -33.375 58.1875 C-29.27116958 39.29392742 -29.27116958 39.29392742 -26.375 20.1875 C-28.4495356 20.0384288 -28.4495356 20.0384288 -30.375 21.1875 Z M-62.375 32.1875 C-66.1592599 37.04079675 -68.8518417 42.84361754 -71.58203125 48.3359375 C-71.95228928 49.0745401 -72.3225473 49.8131427 -72.70402527 50.5741272 C-73.47644111 52.11761002 -74.24687656 53.66208542 -75.01538086 55.20751953 C-76.19630962 57.58019999 -77.38583481 59.94843425 -78.57617188 62.31640625 C-79.32863889 63.82266006 -80.08061032 65.32916156 -80.83203125 66.8359375 C-81.36628471 67.89837173 -81.36628471 67.89837173 -81.91133118 68.98226929 C-83.74816635 72.41892829 -83.74816635 72.41892829 -84.375 76.1875 C-78.76962794 75.52696516 -73.80727973 73.66471446 -68.5625 71.6875 C-67.69173828 71.36652344 -66.82097656 71.04554687 -65.92382812 70.71484375 C-61.85083107 69.4545885 -61.85083107 69.4545885 -58.375 67.1875 C-57.56516308 55.51078155 -59.12714285 43.77996021 -60.375 32.1875 C-61.035 32.1875 -61.695 32.1875 -62.375 32.1875 Z M-79.8125 38.4375 C-80.94558594 38.85515625 -82.07867187 39.2728125 -83.24609375 39.703125 C-86.49256923 41.24327567 -88.09468979 42.44488516 -90.375 45.1875 C-91.32112297 47.96253103 -91.32112297 47.96253103 -91.75390625 51.0546875 C-91.95306641 52.18777344 -92.15222656 53.32085937 -92.35742188 54.48828125 C-92.64456055 56.25751953 -92.64456055 56.25751953 -92.9375 58.0625 C-95.48397436 73.34134615 -95.48397436 73.34134615 -98.375 77.1875 C-101.4765625 78.7265625 -101.4765625 78.7265625 -105 79.8125 C-108.47022536 80.81499211 -108.47022536 80.81499211 -111.375 82.1875 C-112.37141644 84.23352912 -112.37141644 84.23352912 -112.375 86.1875 C-100.83546174 83.77167754 -100.83546174 83.77167754 -92.33618164 76.28540039 C-90.1597584 71.53508163 -89.64890098 66.1822878 -88.8125 61.0625 C-88.42544983 58.72487028 -88.02870392 56.38881999 -87.62109375 54.0546875 C-87.45279053 53.02456543 -87.2844873 51.99444336 -87.11108398 50.93310547 C-86.3254485 48.00267207 -85.44408885 46.38742412 -83.375 44.1875 C-80.28853112 42.98302434 -77.19026889 42.17145711 -73.9921875 41.3125 C-71.20296269 40.47603143 -71.20296269 40.47603143 -70.5078125 38.0625 C-70.46398437 37.44375 -70.42015625 36.825 -70.375 36.1875 C-73.98376632 36.1875 -76.43687977 37.1654161 -79.8125 38.4375 Z M-78.375 49.1875 C-81.22642144 52.03892144 -81.98615021 55.21513259 -82.375 59.1875 C-82.045 60.5075 -81.715 61.8275 -81.375 63.1875 C-77.91 55.7625 -77.91 55.7625 -74.375 48.1875 C-76.4495356 48.0384288 -76.4495356 48.0384288 -78.375 49.1875 Z M11.83203125 58.5 C11.11982422 58.77070312 10.40761719 59.04140625 9.67382812 59.3203125 C8.5668457 59.74957031 8.5668457 59.74957031 7.4375 60.1875 C6.68791016 60.47367187 5.93832031 60.75984375 5.16601562 61.0546875 C3.31731257 61.76119822 1.47092775 62.47376959 -0.375 63.1875 C-0.045 64.5075 0.285 65.8275 0.625 67.1875 C4.585 65.8675 8.545 64.5475 12.625 63.1875 C3.39648437 79.79882813 3.39648437 79.79882813 2.38961792 81.61001587 C1.7283978 82.80099077 1.06849646 83.99269884 0.40994263 85.18515015 C-1.0351469 87.79863139 -2.49798602 90.39621354 -4.01416016 92.96923828 C-4.47999512 93.76442871 -4.94583008 94.55961914 -5.42578125 95.37890625 C-5.83094971 96.05252197 -6.23611816 96.7261377 -6.65356445 97.42016602 C-7.6747953 99.37363211 -7.6747953 99.37363211 -6.375 102.1875 C-3.55486609 101.2903206 -0.74550618 100.37125745 2.0625 99.4375 C3.26616211 99.05851562 3.26616211 99.05851562 4.49414062 98.671875 C5.25791016 98.4140625 6.02167969 98.15625 6.80859375 97.890625 C7.51556396 97.66020508 8.22253418 97.42978516 8.95092773 97.19238281 C10.83630595 96.30312397 10.83630595 96.30312397 11.36352539 94.08105469 C11.44981201 93.45618164 11.53609863 92.83130859 11.625 92.1875 C10.18706608 92.49799726 8.7496682 92.8109776 7.3125 93.125 C6.51199219 93.29902344 5.71148437 93.47304687 4.88671875 93.65234375 C2.479599 94.18636159 2.479599 94.18636159 -0.375 95.1875 C1.52367706 91.62925848 3.42609542 88.07304453 5.33178711 84.51855469 C5.97763913 83.31270701 6.62252118 82.10633923 7.26635742 80.89941406 C13.31679053 69.56014082 13.31679053 69.56014082 16.58203125 64.59375 C18.96790075 61.27776922 18.96790075 61.27776922 18.625 57.1875 C15.78626404 57.1875 14.41193542 57.5093168 11.83203125 58.5 Z M-6.375 65.1875 C-7.365 65.5175 -8.355 65.8475 -9.375 66.1875 C-11.685 77.7375 -13.995 89.2875 -16.375 101.1875 C-20.335 102.5075 -24.295 103.8275 -28.375 105.1875 C-28.0140625 103.22425781 -27.653125 101.26101562 -27.28125 99.23828125 C-26.9334414 97.32533396 -26.58566436 95.41238078 -26.23876953 93.49926758 C-25.87966687 91.52564901 -25.5160348 89.55285632 -25.15234375 87.58007812 C-24.81396484 85.70932617 -24.81396484 85.70932617 -24.46875 83.80078125 C-24.25927734 82.65391846 -24.04980469 81.50705566 -23.83398438 80.32543945 C-23.42801154 77.54992409 -23.28335047 74.98510186 -23.375 72.1875 C-24.365 72.1875 -25.355 72.1875 -26.375 72.1875 C-29.51596915 84.37065306 -31.38856345 96.77568602 -33.375 109.1875 C-28.84320962 110.64679429 -25.53141947 109.14287026 -21.25 107.5 C-20.52167969 107.24283203 -19.79335937 106.98566406 -19.04296875 106.72070312 C-15.13443809 105.35388816 -15.13443809 105.35388816 -12.24926758 102.55004883 C-11.05332006 99.31821857 -10.43553628 96.02901612 -9.83203125 92.6484375 C-9.63295418 91.56533798 -9.63295418 91.56533798 -9.42985535 90.46035767 C-9.15209678 88.93961948 -8.87744464 87.41831102 -8.60571289 85.89648438 C-8.18740336 83.56196067 -7.7554889 81.23023417 -7.32226562 78.8984375 C-7.05386725 77.41941945 -6.78626145 75.9402573 -6.51953125 74.4609375 C-6.3894014 73.76197357 -6.25927155 73.06300964 -6.12519836 72.34286499 C-5.35539304 68.67249794 -5.35539304 68.67249794 -6.375 65.1875 Z M0.625 73.1875 C0.955 74.5075 1.285 75.8275 1.625 77.1875 C2.285 75.8675 2.945 74.5475 3.625 73.1875 C2.635 73.1875 1.645 73.1875 0.625 73.1875 Z M-47.5625 79.5625 C-49.40908203 80.22378906 -49.40908203 80.22378906 -51.29296875 80.8984375 C-54.41618667 81.97568539 -54.41618667 81.97568539 -56.375 84.1875 C-56.96778114 86.62076798 -57.45671982 88.99796071 -57.8828125 91.4609375 C-58.01315887 92.18109039 -58.14350525 92.90124329 -58.27780151 93.64321899 C-58.55205522 95.16740301 -58.82247461 96.69228118 -59.08935547 98.21777344 C-59.49743913 100.54787777 -59.9175892 102.87555149 -60.33984375 105.203125 C-60.60488285 106.6847679 -60.8692286 108.16653503 -61.1328125 109.6484375 C-61.25778107 110.34335297 -61.38274963 111.03826843 -61.51150513 111.75424194 C-62.07211496 114.97937515 -62.375 117.89756982 -62.375 121.1875 C-60.395 120.6925 -60.395 120.6925 -58.375 120.1875 C-58.28025391 119.04861328 -58.28025391 119.04861328 -58.18359375 117.88671875 C-57.80825077 114.84051415 -57.35934969 112.09756437 -56.375 109.1875 C-53 107.0625 -53 107.0625 -49.375 106.1875 C-48.1684375 105.8471875 -48.1684375 105.8471875 -46.9375 105.5 C-46.421875 105.396875 -45.90625 105.29375 -45.375 105.1875 C-45.106875 105.93 -44.83875 106.6725 -44.5625 107.4375 C-43.43270579 110.05386554 -42.16606798 111.98937111 -40.375 114.1875 C-39.385 113.5275 -38.395 112.8675 -37.375 112.1875 C-38.07625 111.115 -38.7775 110.0425 -39.5 108.9375 C-40.6953125 107.109375 -40.6953125 107.109375 -41.375 105.1875 C-40.58984375 103.32421875 -40.58984375 103.32421875 -39.375 101.1875 C-38.8095542 99.22061437 -38.29172254 97.23965168 -37.8125 95.25 C-37.56371094 94.23035156 -37.31492187 93.21070312 -37.05859375 92.16015625 C-35.87416081 87.00956501 -35.27079108 82.50215479 -35.375 77.1875 C-39.89309092 76.86047628 -43.33541379 78.02132842 -47.5625 79.5625 Z M-0.375 77.1875 C0.625 79.1875 0.625 79.1875 0.625 79.1875 Z M-62.375 85.1875 C-64.2977994 85.72866524 -66.21312964 86.29640766 -68.125 86.875 C-69.19234375 87.18824219 -70.2596875 87.50148438 -71.359375 87.82421875 C-74.94546567 89.44539186 -76.16672287 90.95747003 -78.375 94.1875 C-79.35745544 97.03944962 -79.35745544 97.03944962 -79.859375 100.1171875 C-80.07207031 101.24253906 -80.28476563 102.36789063 -80.50390625 103.52734375 C-80.81134766 105.27724609 -80.81134766 105.27724609 -81.125 107.0625 C-81.34542969 108.22136719 -81.56585938 109.38023438 -81.79296875 110.57421875 C-82.82451926 116.18047151 -83.67423923 121.48533017 -83.375 127.1875 C-79.58904892 128.44948369 -78.00784796 127.71790494 -74.25 126.5 C-73.17492187 126.16613281 -72.09984375 125.83226562 -70.9921875 125.48828125 C-70.12851563 125.05902344 -69.26484375 124.62976563 -68.375 124.1875 C-68.045 122.8675 -67.715 121.5475 -67.375 120.1875 C-71.335 120.8475 -75.295 121.5075 -79.375 122.1875 C-78.61833773 117.91370401 -77.84541054 113.6439936 -77.0625 109.375 C-76.84916016 108.16005859 -76.63582031 106.94511719 -76.41601562 105.69335938 C-76.09213867 103.94829102 -76.09213867 103.94829102 -75.76171875 102.16796875 C-75.56795654 101.09442139 -75.37419434 100.02087402 -75.17456055 98.91479492 C-74.33982251 96.06750984 -73.69941674 94.96482488 -71.375 93.1875 C-68.89453125 92.01953125 -68.89453125 92.01953125 -66.1875 91 C-65.28644531 90.65582031 -64.38539062 90.31164062 -63.45703125 89.95703125 C-62.76996094 89.70308594 -62.08289063 89.44914062 -61.375 89.1875 C-61.705 87.8675 -62.035 86.5475 -62.375 85.1875 Z M-66.453125 98.25 C-69.16282162 100.98172667 -69.42223259 103.43940712 -70.125 107.1875 C-70.36734375 108.425 -70.6096875 109.6625 -70.859375 110.9375 C-71.45334701 114.13288214 -71.45334701 114.13288214 -71.375 117.1875 C-69.065 116.5275 -66.755 115.8675 -64.375 115.1875 C-63.385 109.2475 -62.395 103.3075 -61.375 97.1875 C-64.31881116 96.9598855 -64.31881116 96.9598855 -66.453125 98.25 Z " fill="#231F20" transform="translate(115.375,7.8125)"/>
<path d="M0 0 C-0.97766254 12.78679697 -0.97766254 12.78679697 -3 17 C-7.23662786 19.79949723 -10.92868277 21 -16 21 C-15.74730017 17.32255249 -15.40923181 13.66336424 -15 10 C-14.88591797 8.91912109 -14.88591797 8.91912109 -14.76953125 7.81640625 C-14.4375 6 -14.4375 6 -13 3 C-8.84397927 0.38844643 -4.83990348 -0.14359225 0 0 Z M-7 9 C-7.33 10.98 -7.66 12.96 -8 15 C-7.01 14.67 -6.02 14.34 -5 14 C-5 12.35 -5 10.7 -5 9 C-5.66 9 -6.32 9 -7 9 Z " fill="#231F20" transform="translate(76,90)"/>
<path d="M0 0 C0.66 0 1.32 0 2 0 C2.33494072 3.2915052 2.66767936 6.58322932 3 9.875 C3.09539062 10.81214844 3.19078125 11.74929687 3.2890625 12.71484375 C3.42441406 14.05869141 3.42441406 14.05869141 3.5625 15.4296875 C3.64628906 16.25710449 3.73007813 17.08452148 3.81640625 17.93701172 C4 20 4 20 4 22 C1.70967689 22.83719383 -0.58210957 23.6698929 -2.875 24.5 C-3.85146484 24.85771484 -3.85146484 24.85771484 -4.84765625 25.22265625 C-9.7734375 27 -9.7734375 27 -12 27 C-11.39320291 23.16902733 -10.25191853 20.15032264 -8.49609375 16.69921875 C-8.00302734 15.72275391 -7.50996094 14.74628906 -7.00195312 13.74023438 C-6.48568359 12.73283203 -5.96941406 11.72542969 -5.4375 10.6875 C-4.91736328 9.66076172 -4.39722656 8.63402344 -3.86132812 7.57617188 C-2.57959638 5.0479854 -1.29233939 2.522776 0 0 Z M-1 18 C0 20 0 20 0 20 Z " fill="#231F20" transform="translate(126,24)"/>
<path d="M0 0 C1.61635488 2.86973884 2.2733418 5.04464203 2.4140625 8.328125 C2.45273437 9.12734375 2.49140625 9.9265625 2.53125 10.75 C2.5621875 11.575 2.593125 12.4 2.625 13.25 C2.66367187 14.09046875 2.70234375 14.9309375 2.7421875 15.796875 C2.83615836 17.86423382 2.91915564 19.93208627 3 22 C0.70967689 22.83719383 -1.58210957 23.6698929 -3.875 24.5 C-4.85146484 24.85771484 -4.85146484 24.85771484 -5.84765625 25.22265625 C-10.7734375 27 -10.7734375 27 -13 27 C-11.32246669 21.21969949 -8.64724599 16.03416995 -5.9375 10.6875 C-5.47794922 9.76904297 -5.01839844 8.85058594 -4.54492188 7.90429688 C-1.14055525 1.14055525 -1.14055525 1.14055525 0 0 Z " fill="#231F20" transform="translate(51,51)"/>
<path d="M0 0 C1.65 0.33 3.3 0.66 5 1 C5 2.32 5 3.64 5 5 C3.02 5 1.04 5 -1 5 C-0.67 3.35 -0.34 1.7 0 0 Z " fill="#231F20" transform="translate(68,144)"/>
<path d="M0 0 C1.32 0 2.64 0 4 0 C3.67 1.65 3.34 3.3 3 5 C1.68 4.67 0.36 4.34 -1 4 C-0.67 2.68 -0.34 1.36 0 0 Z " fill="#231F20" transform="translate(138,114)"/>
<path d="M0 0 C2.475 0.99 2.475 0.99 5 2 C4.67 2.66 4.34 3.32 4 4 C3.34 4 2.68 4 2 4 C2 4.66 2 5.32 2 6 C1.34 6 0.68 6 0 6 C-0.38218767 4.34385343 -0.71395102 2.67542976 -1 1 C-0.67 0.67 -0.34 0.34 0 0 Z " fill="#231F20" transform="translate(125,129)"/>
<path d="M0 0 C1.65 0.33 3.3 0.66 5 1 C5 1.66 5 2.32 5 3 C4.34 3 3.68 3 3 3 C3 3.66 3 4.32 3 5 C1.68 4.67 0.36 4.34 -1 4 C-0.67 2.68 -0.34 1.36 0 0 Z " fill="#231F20" transform="translate(132,122)"/>
<path d="M0 0 C1.65 0 3.3 0 5 0 C5 1.32 5 2.64 5 4 C4.01 4.33 3.02 4.66 2 5 C1.34 3.35 0.68 1.7 0 0 Z " fill="#231F20" transform="translate(105,141)"/>
<path d="M0 0 C1.32 0.33 2.64 0.66 4 1 C4 1.99 4 2.98 4 4 C2.02 4 0.04 4 -2 4 C-1.34 2.68 -0.68 1.36 0 0 Z " fill="#231F20" transform="translate(79,146)"/>
<path d="M0 0 C1.98 0.495 1.98 0.495 4 1 C3.67 2.32 3.34 3.64 3 5 C1.68 4.67 0.36 4.34 -1 4 C-0.67 2.68 -0.34 1.36 0 0 Z " fill="#231F20" transform="translate(59,142)"/>
<path d="M0 0 C0.99 0 1.98 0 3 0 C3 1.65 3 3.3 3 5 C1.68 4.67 0.36 4.34 -1 4 C-0.67 2.68 -0.34 1.36 0 0 Z " fill="#231F20" transform="translate(98,143)"/>
<path d="M0 0 C1.32 0 2.64 0 4 0 C4 1.65 4 3.3 4 5 C3.01 5 2.02 5 1 5 C0.67 3.35 0.34 1.7 0 0 Z " fill="#231F20" transform="translate(88,145)"/>
<path d="M0 0 C1.32 0.33 2.64 0.66 4 1 C4 2.32 4 3.64 4 5 C2.68 4.67 1.36 4.34 0 4 C0 2.68 0 1.36 0 0 Z " fill="#231F20" transform="translate(143,105)"/>
</svg>
