<?xml version="1.0" encoding="UTF-8"?>
<svg version="1.1" xmlns="http://www.w3.org/2000/svg" width="355" height="477">
<path d="M0 0 C39.67480291 -1.61571596 72.18711532 14.82646354 101 41 C107.64980181 47.16323094 113.39565675 53.88352367 119 61 C119.81597656 62.02222656 120.63195312 63.04445312 121.47265625 64.09765625 C125.96831216 69.78612591 130.18291507 75.60041078 134.125 81.6875 C134.51558594 82.28796143 134.90617188 82.88842285 135.30859375 83.50708008 C138 87.74665661 138 87.74665661 138 90 C138.66 90 139.32 90 140 90 C144.70319183 70.64752213 138.2562386 51.56488543 130.78808594 33.88867188 C129.3613835 30.46953618 128.01685389 27.02043389 126.6875 23.5625 C126.30573608 22.60500854 126.30573608 22.60500854 125.91625977 21.62817383 C124.15147625 17.01522079 123.1910881 12.91148052 123 8 C124.4375 6 124.4375 6 126 5 C130.82091063 7.59989489 135.53447101 10.32350941 140.18652344 13.21630859 C150.02170996 19.29098263 160.22293186 23.95841372 171.125 27.8125 C193.27516365 36.53832204 209.6200846 58.77471961 222 78 C222.69222656 76.61941406 222.69222656 76.61941406 223.3984375 75.2109375 C231.51102631 59.34481745 241.12759374 41.95746875 259 36 C260.39439664 35.93334624 261.79169875 35.91461801 263.1875 35.9375 C264.445625 35.958125 265.70375 35.97875 267 36 C266.81824219 36.62003906 266.63648438 37.24007812 266.44921875 37.87890625 C260.6568455 58.28588279 256.8391588 79.42086392 267.2265625 99.0625 C269.6131099 103.01554767 272.21574692 106.80792145 274.8125 110.625 C292.0389227 136.06742605 295.77661465 157.98118558 290 188 C285.62969746 211.22199085 284.30349741 233.97742157 290.4375 257.0625 C302.85995901 303.94962445 295.95558227 349.01039999 272.17114258 391.01855469 C263.16137547 406.40273649 252.59697631 419.40302369 240 432 C239.50757813 432.53882813 239.01515625 433.07765625 238.5078125 433.6328125 C216.54659087 457.33107991 182.14033133 469.23911619 151 474 C150.2663623 474.11569336 149.53272461 474.23138672 148.77685547 474.35058594 C104.63002205 480.99380222 58.45541724 473.44229099 22 446.75 C15.11641898 441.42374856 8.50042344 435.78489984 2 430 C0.98292969 429.09507812 0.98292969 429.09507812 -0.0546875 428.171875 C-12.81421006 416.08390626 -22.66338655 400.31795205 -31 385 C-31.59941406 383.90945313 -32.19882812 382.81890625 -32.81640625 381.6953125 C-49.9988989 349.02166876 -55.69212764 311.23437461 -50 274.9375 C-45.81097938 247.7972381 -45.88990048 218.09482674 -53.9375 191.671875 C-57.19968807 180.39813682 -58.50399311 169.99138725 -58.375 158.3125 C-58.37034729 157.56232605 -58.36569458 156.8121521 -58.36090088 156.03924561 C-58.27911716 144.7911388 -57.8069096 133.9328488 -55 123 C-54.81195801 122.22124512 -54.62391602 121.44249023 -54.43017578 120.64013672 C-50.2267411 103.60234859 -43.12033245 86.94773522 -31 74 C-30.15695313 73.07832031 -29.31390625 72.15664062 -28.4453125 71.20703125 C-22.60694102 65.07922209 -16.55519021 59.90418119 -9 56 C-8.34 56 -7.68 56 -7 56 C-6.97421875 57.258125 -6.9484375 58.51625 -6.921875 59.8125 C-6.21943083 83.89190761 -0.35321263 101.87008238 17 119 C16.98428955 118.43829102 16.9685791 117.87658203 16.95239258 117.29785156 C16.50566138 98.71232592 18.13773381 81.54132521 23.81640625 63.796875 C28.2315309 49.63350484 28.82823456 34.69745637 21.75 21.125 C20.87135928 19.72539532 19.95432856 18.34913297 19 17 C18.51917969 16.31421875 18.03835937 15.6284375 17.54296875 14.921875 C13.33848136 9.56140932 8.3653951 6.60382809 2.37890625 3.4453125 C1.59386719 2.96835937 0.80882812 2.49140625 0 2 C0 1.34 0 0.68 0 0 Z M49 30 C49.165 31.03125 49.33 32.0625 49.5 33.125 C51.53324461 50.54414043 47.86024922 66.87659077 42.66333008 83.44458008 C36.92329909 101.7536546 38.39812103 124.3650105 46 142 C27.49405377 142.50726959 8.02581549 142.33667841 -6.4140625 128.8125 C-13.63502814 120.55996784 -18.03771771 110.73483843 -20 100 C-24.44062608 101.48020869 -25.26366256 104.53264253 -27.29345703 108.58251953 C-39.03134405 133.60063334 -38.75345976 163.66677516 -31.21508789 189.58569336 C-22.69442342 218.95017253 -21.59052583 246.64977064 -24.91845703 276.86132812 C-29.35901449 318.49357768 -21.52595271 355.61175943 3 390 C3.72058594 391.03511719 4.44117188 392.07023437 5.18359375 393.13671875 C16.29079233 408.36463181 29.8741654 421.25161411 46 431 C46.87543457 431.54575684 46.87543457 431.54575684 47.76855469 432.10253906 C82.60152696 453.55491349 125.8710387 454.87474687 164.64453125 445.71484375 C191.46374449 438.87143828 214.51760582 424.51956562 232 403 C232.42748535 402.4848584 232.8549707 401.9697168 233.29541016 401.43896484 C258.60866279 370.91743553 275.0347721 334.67952946 271.68359375 294.17578125 C270.7523136 284.8584917 269.1490125 275.65410881 267.40917969 266.45727539 C265.32103299 255.11027017 264.75077587 243.8932745 265.1875 232.375 C265.23011963 231.22781494 265.27273926 230.08062988 265.31665039 228.89868164 C265.99242639 214.43392756 268.05899249 200.02679126 271.08203125 185.8671875 C274.88121226 167.2300836 273.72799405 149.93586804 263.94140625 133.55078125 C263.1482647 132.22145726 262.35530525 130.89202459 261.5625 129.5625 C260.94205811 128.52766479 260.94205811 128.52766479 260.30908203 127.47192383 C253.68461466 116.27654962 247.90785451 104.58395312 242 93 C241.67 93 241.34 93 241 93 C240.84144531 94.26972656 240.68289063 95.53945312 240.51953125 96.84765625 C238.24662431 114.01254223 234.42359985 131.3899477 223 145 C221.07064168 143.07064168 221.61341925 140.15405901 221.40625 137.56469727 C219.55469539 114.79842817 212.10946833 93.47281223 197 76 C196.23558594 75.11054687 195.47117188 74.22109375 194.68359375 73.3046875 C192.4978118 70.82672826 190.2633995 68.40697335 188 66 C187.4740625 65.40960938 186.948125 64.81921875 186.40625 64.2109375 C182.5034333 60.00943585 178.03396207 56.64813449 173.4375 53.25 C172.79989746 52.77763916 172.16229492 52.30527832 171.50537109 51.81860352 C167.815424 49.14461102 164.15428468 46.92031649 160 45 C160.2165625 46.34964844 160.2165625 46.34964844 160.4375 47.7265625 C163.92820353 71.91907722 163.85591057 96.38481874 148.6875 116.81640625 C148.130625 117.53699219 147.57375 118.25757812 147 119 C146.566875 119.58652344 146.13375 120.17304687 145.6875 120.77734375 C142.62223413 124.74000654 139.17782638 127.31988497 135 130 C134.34 130 133.68 130 133 130 C132.84031738 129.46334717 132.68063477 128.92669434 132.51611328 128.3737793 C125.20634488 104.21563593 113.99342149 83.62068522 96.41650391 65.46777344 C94.99524487 63.99507276 93.59721558 62.50257502 92.19921875 61.0078125 C79.98021204 48.1478977 65.54078826 38.43269663 50 30 C49.67 30 49.34 30 49 30 Z " fill="#000000" transform="translate(59,1)"/>
<path d="M0 0 C0.66 0 1.32 0 2 0 C3.02065215 3.06195644 3.23289867 5.34912015 3.3125 8.5625 C3.34988281 9.53316406 3.38726562 10.50382812 3.42578125 11.50390625 C3.02901184 14.76178349 2.33188781 16.7836207 1.04296875 19.75 C-1.18558388 25.01717353 -1.70254135 29.76991438 -2 35.4375 C-4.50416836 69.23948982 -16.71098634 99.2126123 -40 124 C-40.515625 124.59167969 -41.03125 125.18335938 -41.5625 125.79296875 C-61.34446783 147.4810116 -94.00058328 157.62475851 -122.2890625 160.3125 C-125.22912656 160.38028246 -128.06696664 160.22990523 -131 160 C-131.7724707 159.95069336 -132.54494141 159.90138672 -133.34082031 159.85058594 C-170.33961519 157.4516274 -205.84255212 145.56964854 -231.33666992 117.43774414 C-251.60024247 93.99528474 -261.208293 64.76844054 -263.74926758 34.25683594 C-264.34133593 28.23875591 -265.70677664 24.09278286 -268.86865234 18.93847656 C-271.05533106 15.19177198 -271.41583877 11.2623474 -271 7 C-269.0625 3.875 -269.0625 3.875 -267 2 C-264.40692815 2.35938096 -263.2883008 2.64348154 -261.61328125 4.71484375 C-261.18402344 5.44832031 -260.75476563 6.18179687 -260.3125 6.9375 C-250.15297399 22.84154813 -234.5252311 33.44204949 -218 42 C-217.41331543 42.31356445 -216.82663086 42.62712891 -216.22216797 42.95019531 C-206.45197767 48.12496205 -196.21159772 51.81447162 -185.75 55.3125 C-185.11682861 55.52541687 -184.48365723 55.73833374 -183.83129883 55.95770264 C-140.0054051 70.60561457 -94.26845725 63.19437543 -53.19042969 43.26367188 C-44.97051062 39.14105766 -37.3774649 34.47911722 -30 29 C-29.06671875 28.30777344 -28.1334375 27.61554688 -27.171875 26.90234375 C-17.99147376 19.72176676 -8.89290162 11.23783073 -1.68359375 2.046875 C-1.12800781 1.37140625 -0.57242187 0.6959375 0 0 Z M-25.76953125 43.51953125 C-27.25986617 45.04565529 -27.25986617 45.04565529 -27.375 47.8125 C-25.32537102 52.56391263 -21.80879435 55.58162876 -18 59 C-17.34 58.67 -16.68 58.34 -16 58 C-16.11478413 55.93690624 -16.24226198 53.87451646 -16.375 51.8125 C-16.44460938 50.66394531 -16.51421875 49.51539063 -16.5859375 48.33203125 C-16.97509574 45.20040883 -17.6809851 42.84714191 -19 40 C-21.97192593 40 -23.61541177 41.62071482 -25.76953125 43.51953125 Z M-251 42 C-251.33 42.33 -251.66 42.66 -252 43 C-251.91062197 44.52519276 -251.75462854 46.04681929 -251.5625 47.5625 C-251.46066406 48.38878906 -251.35882813 49.21507812 -251.25390625 50.06640625 C-251.17011719 50.70449219 -251.08632812 51.34257812 -251 52 C-248.3094472 50.77992056 -248.3094472 50.77992056 -246 49 C-245.7499227 46.54190002 -245.7499227 46.54190002 -246 44 C-246.66 43.34 -247.32 42.68 -248 42 C-248.99 42 -249.98 42 -251 42 Z M-242 51 C-245.5516527 54.5516527 -247.88122437 57.4059115 -248.27734375 62.63671875 C-247.67911982 67.73426067 -245.42970504 72.52045531 -243 77 C-242.34 77.33 -241.68 77.66 -241 78 C-241 69.09 -241 60.18 -241 51 C-241.33 51 -241.66 51 -242 51 Z M-33 52 C-32.89042969 52.56203125 -32.78085937 53.1240625 -32.66796875 53.703125 C-30.83396126 63.42485574 -29.43529598 73.21323732 -28 83 C-24.11160185 79.50044167 -22.32531135 76.56466388 -21.6640625 71.3515625 C-21.57224763 64.94288471 -22.10523565 61.15793117 -26 56 C-29.03748893 52.91091312 -29.03748893 52.91091312 -33 52 Z M-234 54 C-239.69985131 62.54977696 -235.4614976 79.18708755 -234 89 C-231.10599892 85.36156134 -228.79779228 81.43035986 -226.4375 77.4375 C-225.64518849 76.10247431 -224.85224263 74.76782484 -224.05859375 73.43359375 C-223.71111084 72.84634521 -223.36362793 72.25909668 -223.00561523 71.65405273 C-222.04624519 70.07606485 -221.02438524 68.53657786 -220 67 C-219.89043164 63.05553898 -221.61958605 61.02243807 -224.1875 58.25 C-227.30412294 55.28148104 -229.58286009 54.10773512 -234 54 Z M-50 58 C-51.24677006 60.89706707 -51.24677006 60.89706707 -51 64 C-48.74607109 68.26399011 -45.8296156 72.10511736 -43 76 C-40.63236159 79.25898463 -38.3131889 82.47429007 -36.25 85.9375 C-35.8375 86.618125 -35.425 87.29875 -35 88 C-34.67 88 -34.34 88 -34 88 C-33.11194037 70.71212613 -33.11194037 70.71212613 -39 55 C-43.62596546 52.74953032 -46.38448301 54.79533721 -50 58 Z M-79.9375 67.75 C-80.61490234 67.90726562 -81.29230469 68.06453125 -81.99023438 68.2265625 C-86.88237725 69.44608038 -90.78035988 71.2189951 -95 74 C-96.677585 76.72864106 -96.677585 76.72864106 -96 80 C-94.50301528 82.13067764 -92.81806243 83.94128614 -91.0234375 85.828125 C-83.86234133 93.51455255 -79.0253938 103.01794763 -74.00732422 112.16455078 C-72.66194514 114.61597102 -71.29944693 117.05775522 -69.9375 119.5 C-69.29119081 120.66640312 -68.64512424 121.83294108 -68 123 C-62.4851568 118.67131022 -62.5238319 109.6418789 -61.58984375 103.1484375 C-60.90966391 96.49991909 -60.84345005 89.80352567 -60.75 83.125 C-60.72848877 82.22064209 -60.70697754 81.31628418 -60.68481445 80.38452148 C-60.65913304 75.1711939 -61.02697877 71.48839613 -64 67 C-68.99502101 64.50248949 -74.79074077 66.44505064 -79.9375 67.75 Z M-215 69 C-225.31102664 82.99725367 -225.31102664 82.99725367 -229.93359375 98.93359375 C-228.75688553 102.79851404 -226.65077747 105.13016921 -223.875 107.9375 C-223.37436035 108.46110107 -222.8737207 108.98470215 -222.35791016 109.52416992 C-221.36271551 110.56092462 -220.36203388 111.59244513 -219.35546875 112.61816406 C-218.23417571 113.761269 -217.13031855 114.92144821 -216.03125 116.0859375 C-211.7398649 120.55950404 -206.96258866 124.29775132 -202 128 C-201.01 127.505 -201.01 127.505 -200 127 C-200.33209473 126.1793103 -200.33209473 126.1793103 -200.67089844 125.34204102 C-208.17287622 106.65149959 -212.55724825 90.16734208 -213 70 C-213.66 69.67 -214.32 69.34 -215 69 Z M-55 69 C-56.32201403 85.65891625 -57.40395529 102.29863334 -58 119 C-51.41801626 118.09726265 -47.45178271 114.07828247 -43.41015625 109.00390625 C-40.10606024 104.09085913 -38.33807277 99.72570471 -39.41015625 93.69140625 C-41.91351109 84.08272089 -47.28422029 76.18432248 -54 69 C-54.33 69 -54.66 69 -55 69 Z M-205.4375 71.875 C-209.47873641 77.37108151 -208.67083749 84.45585505 -208 91 C-206.842628 97.46396196 -204.97008185 103.74375975 -203 110 C-202.68933594 111.00417969 -202.37867188 112.00835937 -202.05859375 113.04296875 C-199.67650437 119.76195627 -195.69417937 125.6555447 -191 131 C-190.34 131 -189.68 131 -189 131 C-188.84144531 130.12859375 -188.68289062 129.2571875 -188.51953125 128.359375 C-185.46573334 112.76982101 -178.77886691 99.16830037 -170 86 C-169.41666667 82.5 -169.41666667 82.5 -170 79 C-173.40641096 76.4421174 -176.69005232 75.4076949 -180.8125 74.5 C-184.43859586 73.6611602 -187.82148683 72.75858575 -191.25 71.3125 C-196.32132546 69.53753609 -200.86929539 68.36099645 -205.4375 71.875 Z M-151 84 C-153.87753413 89.75506825 -152.33397122 97.8522071 -150.5 103.75 C-146.48122093 114.57955203 -140.78034338 124.73410185 -135.1875 134.8125 C-134.62832886 135.82618652 -134.62832886 135.82618652 -134.05786133 136.86035156 C-132.3007478 139.97402204 -130.59554434 142.55179897 -128 145 C-124.26413949 138.00305458 -121.39042814 130.97467921 -118.9375 123.4375 C-118.59533447 122.39263428 -118.25316895 121.34776855 -117.90063477 120.27124023 C-111.65204777 102.9235762 -111.65204777 102.9235762 -112 85 C-114.43240699 80.91703112 -116.53316614 79.41025214 -121 78 C-130.87970262 77.23220597 -143.60191477 76.36326686 -151 84 Z M-104 79 C-105.13129027 82.39387081 -105.37031615 85.45154642 -105.71484375 89.015625 C-106.79762355 98.63570443 -109.60577024 107.56634653 -112.5625 116.75 C-113.07615567 118.37719881 -113.58853158 120.00480217 -114.09960938 121.6328125 C-114.8154506 123.91287441 -115.53293612 126.19221623 -116.26087952 128.46844482 C-118.11328288 134.26585322 -119.34112081 138.85982537 -119 145 C-116.5556078 147.4443922 -115.81621949 147.34980804 -112.4375 147.4375 C-99.17933959 147.17582578 -84.6805306 142.07956745 -75.3125 132.5625 C-73.75599002 131.06335168 -73.75599002 131.06335168 -73 129 C-73.92755815 111.12342475 -91.75565314 90.91490255 -104 79 Z M-165.30078125 87.28515625 C-174.1029167 96.16823087 -184.45412161 113.5050477 -185.12109375 126.328125 C-184.83299958 131.94131455 -183.23278508 135.12745195 -179 139 C-173.29423703 142.54675817 -167.18362932 144.25907544 -160.6875 145.75 C-159.76340332 145.965354 -158.83930664 146.18070801 -157.88720703 146.40258789 C-148.51581423 148.48942488 -148.51581423 148.48942488 -139 148 C-138.01 147.34 -137.02 146.68 -136 146 C-136.21097728 141.88594309 -137.29038146 139.3409005 -139.625 136.0625 C-150.29294314 120.69862016 -154.83175566 101.98926503 -159 84 C-161.84905198 84 -163.22598235 85.47159111 -165.30078125 87.28515625 Z " fill="#000000" transform="translate(315,274)"/>
<path d="M0 0 C2.23150748 1.72330458 4.35685507 3.51944485 6.46875 5.38671875 C19.58862724 16.38508392 34.53932692 21.27847209 51.46875 22.38671875 C52.64689553 25.92115534 52.02278452 27.37438828 50.4765625 30.67578125 C48.26316027 34.4334176 45.38167105 36.03272896 41.40625 37.57421875 C38.06930513 38.43229029 34.7766748 38.57217075 31.34375 38.76171875 C26.36084467 39.1021657 24.15762817 39.90863362 20.46875 43.38671875 C14.69642257 45.76355946 9.46192783 45.90295685 3.46875 44.38671875 C-6.15349163 40.12164539 -16.35116839 32.2938413 -20.53125 22.38671875 C-21.48217387 19.0225259 -22.2621582 15.66890074 -22.953125 12.2421875 C-23.48228511 9.33080324 -23.48228511 9.33080324 -24.53125 6.38671875 C-26.74558941 5.29929181 -26.74558941 5.29929181 -29.53125 4.38671875 C-30.645 3.89171875 -31.75875 3.39671875 -32.90625 2.88671875 C-36.4436053 1.42298552 -39.8396538 0.36612182 -43.53125 -0.61328125 C-31.27166555 -8.78633755 -12.19297991 -7.77114306 0 0 Z M-12.53125 13.38671875 C-11.55062664 20.27529521 -7.48359396 25.03826332 -2.125 29.30078125 C3.23588935 32.79197771 7.08669066 34.29844151 13.46875 33.38671875 C14.12875 32.72671875 14.78875 32.06671875 15.46875 31.38671875 C14.90027344 31.01160156 14.33179688 30.63648438 13.74609375 30.25 C11.31404369 28.63810706 8.89048473 27.01406279 6.46875 25.38671875 C5.80359375 24.94585937 5.1384375 24.505 4.453125 24.05078125 C0.74664224 21.52070389 -1.74259982 18.94465174 -4.53125 15.38671875 C-7.59100443 13.37875491 -8.67610886 13.38671875 -12.53125 13.38671875 Z " fill="#000000" transform="translate(124.53125,244.61328125)"/>
<path d="M0 0 C0.99 0.99 0.99 0.99 2 2 C1.14535156 2.27070313 0.29070312 2.54140625 -0.58984375 2.8203125 C-4.19736533 4.22627774 -6.98922229 5.55077337 -10 8 C-11.02022269 11.55037496 -10.99984863 14.57444537 -10.953125 18.26171875 C-11.08352126 28.66082061 -15.60370832 38.16407915 -22.5 45.75 C-29.174987 51.7574883 -35.77107835 56 -45 56 C-48.91956887 55.54307394 -52.1288791 54.97771375 -54.8515625 51.921875 C-56.88174664 49.7253924 -56.88174664 49.7253924 -59.8828125 49.71484375 C-61.48769531 49.82505859 -61.48769531 49.82505859 -63.125 49.9375 C-72.87584938 50.1995609 -79.2706267 48.35532037 -86.50390625 41.71875 C-88 40 -88 40 -89 37 C-87.85144531 37.04640625 -86.70289063 37.0928125 -85.51953125 37.140625 C-73.24447398 37.48800726 -61.6301901 36.89331128 -51.7421875 28.6875 C-49.95482278 26.9562409 -48.3532486 25.15241939 -46.75 23.25 C-35.7820711 10.30140673 -17.89318236 -2.52434938 0 0 Z M-32.91015625 29.8828125 C-34.07633374 31.06693118 -35.24046913 32.25306524 -36.40234375 33.44140625 C-38 35 -38 35 -40.75 37.125 C-43.2120238 39.1766865 -44.51282411 41.18219305 -46 44 C-40.56253429 45.49530307 -36.84589687 44.60316774 -32 42 C-24.83119519 35.9463426 -23.33507183 29.96854138 -22 21 C-25.46249861 21 -30.53290908 27.53959545 -32.91015625 29.8828125 Z " fill="#000000" transform="translate(276,223)"/>
</svg>
