<?xml version="1.0" encoding="UTF-8"?>
<svg version="1.1" xmlns="http://www.w3.org/2000/svg" width="800" height="255">
<path d="M0 0 C0.72316406 0.061875 1.44632812 0.12375 2.19140625 0.1875 C5.45030897 1.36637264 7.09642579 3.47121485 9.4375 6 C10.82195312 7.34964844 10.82195312 7.34964844 12.234375 8.7265625 C34.15548487 30.1649584 34.15548487 30.1649584 39.4375 43 C39.4375 44.32 39.4375 45.64 39.4375 47 C40.0975 47 40.7575 47 41.4375 47 C41.47488281 46.33613281 41.51226562 45.67226563 41.55078125 44.98828125 C42.00896166 38.83428947 42.90673179 35.08093522 46.875 30.25 C50.16311238 27.61951009 54.02381221 27.88077826 58.078125 27.90234375 C59.68300781 27.90717773 59.68300781 27.90717773 61.3203125 27.91210938 C62.43148438 27.92048828 63.54265625 27.92886719 64.6875 27.9375 C66.37746094 27.94426758 66.37746094 27.94426758 68.1015625 27.95117188 C70.88026217 27.96294603 73.65885409 27.9793916 76.4375 28 C76.1075 27.34 75.7775 26.68 75.4375 26 C75.02912339 21.12304083 74.78864369 16.55725515 76.6875 12 C79.62558457 8.64218906 82.0523989 6.83888891 86.4375 6 C90.53691769 5.7974125 94.63152717 5.89060891 98.734375 5.96289062 C100.74465326 5.99048838 102.75516043 6.00231982 104.765625 6.00585938 C108.49045534 6.01585087 112.21311928 6.06776843 115.9375 6.125 C117.154375 6.12226074 118.37125 6.11952148 119.625 6.11669922 C125.94218839 6.25733353 130.72563961 6.46750605 135.26025391 11.19970703 C137.28811165 14.30079019 137.67379981 17.23221755 137.875 20.875 C137.93880859 21.56335938 138.00261719 22.25171875 138.06835938 22.9609375 C138.21978834 24.63830445 138.3327095 26.31907478 138.4375 28 C143.01213349 23.56885132 147.07359412 18.79368333 151.15234375 13.90820312 C151.66152344 13.30556641 152.17070312 12.70292969 152.6953125 12.08203125 C153.1505127 11.53780518 153.60571289 10.9935791 154.07470703 10.43286133 C157.54489209 6.78425579 161.05629481 6.13674209 165.88313293 5.85955811 C166.73614487 5.8527301 167.5891568 5.8459021 168.46801758 5.83886719 C169.93027519 5.82445587 169.93027519 5.82445587 171.42207336 5.80975342 C172.46485947 5.80550354 173.50764557 5.80125366 174.58203125 5.796875 C175.66578537 5.79117493 176.74953949 5.78547485 177.86613464 5.77960205 C180.15659616 5.77016853 182.44707114 5.76362463 184.73754883 5.75976562 C188.22696807 5.75006404 191.71579709 5.71902594 195.20507812 5.6875 C197.43489235 5.68096892 199.66471077 5.67571886 201.89453125 5.671875 C203.44960136 5.6533548 203.44960136 5.6533548 205.03608704 5.63446045 C211.21332585 5.65329475 215.83058031 6.3439425 221.4375 9 C224.82576071 12.60002701 224.73857277 16.10675081 224.640625 20.81640625 C224.4375 23 224.4375 23 223.4375 27 C230.3675 27.33 237.2975 27.66 244.4375 28 C244.89529401 22.96162908 244.89529401 22.96162908 245.3034668 17.91918945 C245.72682132 13.99385422 246.24688166 12.24170533 248.76953125 9.04296875 C253.44786565 5.46058385 258.09327042 5.8416056 263.8125 5.875 C265.04444092 5.87898804 265.04444092 5.87898804 266.30126953 5.88305664 C272.9772174 5.93248493 279.64292398 6.14897149 286.3125 6.4375 C287.24497559 6.47665527 288.17745117 6.51581055 289.13818359 6.55615234 C295.94169389 6.88131554 295.94169389 6.88131554 299.1953125 7.66015625 C301.55012071 8.19887035 301.55012071 8.19887035 304.11170959 7.03840637 C307.87028038 5.86487365 310.95772401 5.73930888 314.89233398 5.7253418 C315.97405884 5.7176754 315.97405884 5.7176754 317.07763672 5.70985413 C319.44637499 5.69602663 321.81482008 5.69690961 324.18359375 5.69921875 C325.83976854 5.69532821 327.49594234 5.6909928 329.15211487 5.68623352 C332.61780029 5.67878614 336.0833838 5.67905192 339.54907227 5.68432617 C343.97857601 5.69012049 348.40766158 5.67318368 352.83709621 5.6499815 C356.2558687 5.63521248 359.67454118 5.63437673 363.09333992 5.63749123 C364.72593069 5.63697966 366.35852731 5.63177298 367.99108696 5.62167931 C370.27875425 5.60926953 372.56561599 5.61613286 374.85327148 5.62768555 C376.15199692 5.62705612 377.45072235 5.6264267 378.7888031 5.6257782 C383.63409954 6.122727 387.72272891 7.34238794 391.3125 10.8125 C394.37452116 16.76643003 393.09270165 21.84429138 391.4375 28 C392.0975 27.67 392.7575 27.34 393.4375 27 C395.31129605 26.92966231 397.18751102 26.9156978 399.0625 26.9375 C400.56683594 26.95103516 400.56683594 26.95103516 402.1015625 26.96484375 C403.25785156 26.98224609 403.25785156 26.98224609 404.4375 27 C404.67718506 26.24485107 404.91687012 25.48970215 405.16381836 24.71166992 C408.88832176 16.78219719 421.00252365 12.2611378 428.375 8.1875 C430.40546369 7.05691538 432.43543478 5.9254455 434.46484375 4.79296875 C435.34906006 4.3033667 436.23327637 3.81376465 437.14428711 3.30932617 C438.95134498 2.27757366 440.70612122 1.15425252 442.4375 0 C444.9609375 -0.3359375 444.9609375 -0.3359375 447.8125 -0.375 C448.74835937 -0.40335938 449.68421875 -0.43171875 450.6484375 -0.4609375 C456.16052231 0.45002329 459.19112994 4.67993931 462.5 8.875 C465.51131807 12.63914759 468.57002161 16.33009729 471.74267578 19.95898438 C488.06958636 38.68177784 504.80015658 58.48267552 503.84765625 84.58984375 C502.38698618 105.39180031 489.04334065 122.48566832 475.875 137.625 C475.32175049 138.26663086 474.76850098 138.90826172 474.19848633 139.56933594 C471.77964342 142.36431556 469.35409712 145.08461866 466.7578125 147.71875 C462.61216306 152.05285907 462.61216306 152.05285907 461.45123291 157.71722412 C461.64038269 158.71256165 461.82953247 159.70789917 462.02441406 160.73339844 C462.34170471 162.45786194 462.34170471 162.45786194 462.66540527 164.21716309 C462.92019653 165.46549927 463.17498779 166.71383545 463.4375 168 C463.69977135 169.31790708 463.96201849 170.63581898 464.22424316 171.95373535 C464.95552408 175.5755181 465.71809501 179.19016275 466.48802948 182.80390167 C467.35158119 186.86937893 468.19527512 190.93900503 469.04296875 195.0078125 C470.11520362 200.14701093 471.19311408 205.28485044 472.28955078 210.41894531 C473.18326591 214.6063235 474.05872988 218.79716374 474.92240143 222.9908371 C475.25226908 224.57573057 475.58873085 226.15926758 475.93215179 227.7412796 C479.2760775 243.1722796 479.2760775 243.1722796 476.4375 251 C474.24610398 253.80772616 472.77157867 254.78404182 469.25366211 255.35351562 C461.92009675 255.69477983 458.47138051 253.58614426 453 248.9375 C444.08462827 241.82579494 434.58877208 236.39451329 424.51391602 231.15209961 C417.27753256 227.31319318 412.19104763 224.50912247 409.125 216.625 C408.898125 215.75875 408.67125 214.8925 408.4375 214 C407.40625 214.433125 406.375 214.86625 405.3125 215.3125 C398.56061378 216.95325557 392.56296379 213.59658569 386.4375 211 C385.6738916 210.68643555 384.9102832 210.37287109 384.12353516 210.04980469 C381.69920365 209.05146409 379.28575488 208.0306602 376.875 207 C376.1133252 206.68047363 375.35165039 206.36094727 374.56689453 206.03173828 C369.94462717 203.99144459 366.88516256 201.80077511 363.4375 198 C361.26380323 196.71832047 361.26380323 196.71832047 357.77392578 197.08398438 C353.48523778 197.13176651 350.10137285 196.13853683 346.0546875 194.65625 C344.63950469 194.15041881 343.22430204 193.64464313 341.80908203 193.13891602 C341.07546448 192.87136505 340.34184692 192.60381409 339.58599854 192.32815552 C325.81652414 187.31242051 312.04110606 183.01186911 297.76904297 179.67578125 C289.54021014 177.66177127 286.14510192 176.06140288 281.4375 169 C280.591875 169.495 279.74625 169.99 278.875 170.5 C270.95631975 173.95542411 262.33776677 170.93922829 254.25 169.1875 C252.97962891 168.92646484 251.70925781 168.66542969 250.40039062 168.39648438 C249.18158203 168.13544922 247.96277344 167.87441406 246.70703125 167.60546875 C245.59948486 167.36981201 244.49193848 167.13415527 243.35083008 166.89135742 C240.4375 166 240.4375 166 238.29516602 164.37329102 C236.5634359 162.81099991 236.5634359 162.81099991 234.50439453 162.98730469 C233.82489746 163.13071289 233.14540039 163.27412109 232.4453125 163.421875 C226.53083311 164.30795746 221.15405095 163.29494825 215.3125 162.25 C214.26707031 162.07984375 213.22164063 161.9096875 212.14453125 161.734375 C198.89358302 159.45608302 198.89358302 159.45608302 194.625 155.1875 C193.18953734 152.54322668 192.28868165 149.88092252 191.4375 147 C190.73173828 147.93972656 190.73173828 147.93972656 190.01171875 148.8984375 C189.38910156 149.71570313 188.76648438 150.53296875 188.125 151.375 C187.20267578 152.59316406 187.20267578 152.59316406 186.26171875 153.8359375 C183.82805125 156.72298631 182.25328025 157.92739129 178.453125 158.265625 C165.31324409 158.21110267 152.03100006 157.50018977 139.03710938 155.46826172 C135.52537486 155.01143136 132.22908852 154.91627784 128.69140625 154.97265625 C127.44166016 154.98490234 126.19191406 154.99714844 124.90429688 155.00976562 C122.30528206 155.04486988 119.70631751 155.08392073 117.10742188 155.12695312 C101.78475801 155.26115471 101.78475801 155.26115471 95.64453125 151.11328125 C92.37860386 146.50630048 91.38680416 141.63756179 90.125 136.1875 C89.86138672 135.11306641 89.59777344 134.03863281 89.32617188 132.93164062 C88.68072201 130.29116391 88.05182374 127.64785941 87.4375 125 C84.4675 124.67 81.4975 124.34 78.4375 124 C78.334375 125.4025 78.23125 126.805 78.125 128.25 C77.36976534 135.52301328 76.36810788 142.7823202 72.5625 149.125 C62.88312624 154.93262426 48.49216943 153.55641242 37.4375 154 C37.14875 154.61875 36.86 155.2375 36.5625 155.875 C35.32648474 158.2096955 34.33626114 159.67764149 31.79296875 160.58984375 C20.83557352 162.49784789 9.20699782 162.13317778 -1.875 162.25 C-2.95418701 162.2713501 -4.03337402 162.2927002 -5.14526367 162.31469727 C-6.16595947 162.31912842 -7.18665527 162.32355957 -8.23828125 162.328125 C-9.14489502 162.3374707 -10.05150879 162.34681641 -10.9855957 162.35644531 C-14.15054012 161.91866049 -15.99007562 160.87075446 -18.5625 159 C-19.2225 158.01 -19.8825 157.02 -20.5625 156 C-20.98208984 156.81404297 -20.98208984 156.81404297 -21.41015625 157.64453125 C-21.81105469 158.35996094 -22.21195312 159.07539063 -22.625 159.8125 C-23.00785156 160.52019531 -23.39070313 161.22789062 -23.78515625 161.95703125 C-28.06395014 166.87529324 -34.53681786 167.57370463 -40.6875 168.1875 C-41.42307129 168.26645508 -42.15864258 168.34541016 -42.91650391 168.42675781 C-60.74718246 170.2102117 -60.74718246 170.2102117 -65.5625 167 C-66.160625 167.78375 -66.75875 168.5675 -67.375 169.375 C-72.01480669 174.94276803 -78.46833248 175.78882698 -85.16674805 177.56884766 C-87.22835313 178.11922108 -89.28496899 178.685978 -91.34179688 179.25390625 C-107.23203116 183.55894286 -107.23203116 183.55894286 -113.5 180.625 C-115.5625 179 -115.5625 179 -116.5625 177 C-116.7378125 177.65226563 -116.913125 178.30453125 -117.09375 178.9765625 C-118.80171906 183.64592954 -120.33724738 186.33397285 -124.7890625 188.75390625 C-128.20216682 190.09554226 -131.69743758 191.17502601 -135.20361328 192.24511719 C-137.70145529 193.04446799 -140.14051044 193.94565171 -142.58984375 194.8828125 C-143.84740479 195.36391479 -143.84740479 195.36391479 -145.13037109 195.85473633 C-146.75483843 196.47841859 -148.37888437 197.10319992 -150.00244141 197.72924805 C-160.71047759 201.72958713 -160.71047759 201.72958713 -166.25 200.3125 C-169.38593421 198.53264545 -171.99318067 196.71254991 -173.16552067 193.18607426 C-174.54977796 185.56328642 -173.48781602 177.3189785 -172.93579102 169.63500977 C-172.86912231 168.66447159 -172.80245361 167.69393341 -172.73376465 166.69398499 C-172.51512084 163.52618079 -172.29096242 160.35879639 -172.06640625 157.19140625 C-171.91162912 154.97470179 -171.75708682 152.75798092 -171.60276794 150.54124451 C-171.27988896 145.91574655 -170.95428645 141.29045072 -170.62670898 136.6652832 C-170.2069122 130.73511741 -169.79380707 124.80450767 -169.38269138 118.87373447 C-169.06531495 114.30543175 -168.74451064 109.73737478 -168.42265129 105.16938591 C-168.2689117 102.9817628 -168.11622257 100.7940656 -167.96460152 98.60629463 C-167.75274238 95.55701546 -167.53629395 92.50809618 -167.31860352 89.45922852 C-167.25674362 88.55581726 -167.19488373 87.65240601 -167.13114929 86.72161865 C-167.07087555 85.89060135 -167.01060181 85.05958405 -166.94850159 84.2033844 C-166.87245367 83.12419408 -166.87245367 83.12419408 -166.79486942 82.02320194 C-166.55652614 79.94798656 -166.11382611 78.0127401 -165.5625 76 C-168.20840014 75.97315321 -170.85403096 75.95323643 -173.5 75.9375 C-174.63211914 75.92493164 -174.63211914 75.92493164 -175.78710938 75.91210938 C-177.71244313 75.90347559 -179.63785581 75.94775667 -181.5625 76 C-183.16673246 77.60423246 -183.0275382 79.49124454 -183.34591675 81.70664978 C-183.56865768 83.23472511 -183.56865768 83.23472511 -183.79589844 84.79367065 C-184.03590576 86.48509689 -184.03590576 86.48509689 -184.28076172 88.21069336 C-184.53709885 89.98170662 -184.53709885 89.98170662 -184.7986145 91.78849792 C-185.17098286 94.36536372 -185.54180787 96.94239778 -185.91006088 99.51984978 C-186.49485259 103.6126839 -187.08554255 107.70465338 -187.67703247 111.79652405 C-188.61513059 118.29112954 -189.54929255 124.78629415 -190.48178017 131.28170735 C-192.14269243 142.85079768 -193.80856663 154.41917226 -195.47831166 165.98699099 C-195.96775487 169.37883333 -196.45621058 172.77081203 -196.94234848 176.16312981 C-197.98079087 183.40768715 -199.03136156 190.65017765 -200.10567474 197.88950729 C-200.53255181 200.79608479 -200.94189684 203.70467122 -201.34918213 206.61404419 C-201.58995238 208.23968134 -201.83170773 209.86517307 -202.07470703 211.49047852 C-202.16820875 212.19684669 -202.26171047 212.90321486 -202.35804558 213.63098812 C-203.05706073 218.11603271 -204.42108793 220.73859427 -207.5625 224 C-209.8581543 225.57055664 -209.8581543 225.57055664 -212.38671875 226.91015625 C-213.79425415 227.67392578 -213.79425415 227.67392578 -215.23022461 228.453125 C-216.22675049 228.98421875 -217.22327637 229.5153125 -218.25 230.0625 C-227.22916029 234.97833069 -235.63060944 240.28128286 -243.87109375 246.34375 C-255.5713115 254.85683406 -255.5713115 254.85683406 -263.29296875 254.41796875 C-266.69698281 253.79106771 -268.34493358 252.63336013 -270.5625 250 C-273.13034094 244.42386648 -272.65070624 239.22123334 -272.31665039 233.24633789 C-272.26417428 232.15792886 -272.21169817 231.06951982 -272.15763187 229.9481287 C-271.97509495 226.29771997 -271.77166736 222.64897655 -271.5625 219 C-271.45422441 217.09402605 -271.45422441 217.09402605 -271.34376144 215.14954758 C-270.8099725 205.89337746 -270.23185505 196.64021831 -269.64374423 187.38736224 C-269.39210411 183.41845143 -269.14376552 179.44933388 -268.89503479 175.48023987 C-268.42630068 168.00815951 -267.95471783 160.53626195 -267.4820376 153.0644303 C-266.94287303 144.53936694 -266.40699666 136.01409782 -265.8713578 127.48881233 C-264.77199081 109.99231472 -263.66862021 92.49607194 -262.5625 75 C-263.32393311 75.01571045 -264.08536621 75.0314209 -264.86987305 75.04760742 C-268.3298394 75.11008453 -271.7896869 75.14903172 -275.25 75.1875 C-276.44818359 75.21263672 -277.64636719 75.23777344 -278.88085938 75.26367188 C-280.03779297 75.27333984 -281.19472656 75.28300781 -282.38671875 75.29296875 C-283.44979248 75.3086792 -284.51286621 75.32438965 -285.6081543 75.34057617 C-289.75407866 74.86263514 -292.31428831 73.11908634 -295.375 70.375 C-298.3371375 64.450725 -296.44905267 57.61384162 -294.53057861 51.60385132 C-294.23689392 50.73168976 -293.94320923 49.8595282 -293.640625 48.9609375 C-293.33936707 48.03584381 -293.03810913 47.11075012 -292.72772217 46.15762329 C-292.09173478 44.2143285 -291.44931561 42.27312795 -290.80078125 40.33398438 C-289.81461838 37.38134259 -288.85113268 34.4220118 -287.890625 31.4609375 C-287.26695176 29.56466729 -286.64199465 27.66881875 -286.015625 25.7734375 C-285.73003723 24.89722748 -285.44444946 24.02101746 -285.15020752 23.11825562 C-280.87988303 10.43922262 -280.87988303 10.43922262 -275.47583008 7.08300781 C-270.73834362 5.44130847 -265.90754384 5.60964546 -260.94921875 5.671875 C-259.36682907 5.673937 -259.36682907 5.673937 -257.75247192 5.67604065 C-254.25138747 5.68514939 -250.75093324 5.71681146 -247.25 5.75 C-244.79321719 5.76403876 -242.33642976 5.77728812 -239.87963867 5.78979492 C-233.90940299 5.82520812 -227.93952763 5.87799203 -221.96951199 5.93859959 C-216.82770583 5.99001162 -211.68589314 6.02888213 -206.54394531 6.06298828 C-198.96444285 6.11392564 -191.38528066 6.18378424 -183.80606079 6.26647949 C-180.85570197 6.29839517 -177.9053815 6.32431007 -174.95492554 6.34533691 C-170.80947358 6.37576862 -166.66469642 6.43079244 -162.51953125 6.48828125 C-161.27930206 6.49469131 -160.03907288 6.50110138 -158.76126099 6.50770569 C-157.61906097 6.52747971 -156.47686096 6.54725372 -155.30004883 6.56762695 C-153.81134026 6.58428154 -153.81134026 6.58428154 -152.29255676 6.60127258 C-149.09852209 7.06776442 -147.20416428 8.18410765 -144.5625 10 C-143.985 10.391875 -143.4075 10.78375 -142.8125 11.1875 C-140.76632605 14.15445222 -140.4384671 17.47982823 -140.5625 21 C-141.5525 24.465 -141.5525 24.465 -142.5625 28 C-131.3425 28 -120.1225 28 -108.5625 28 C-108.5625 24.7 -108.5625 21.4 -108.5625 18 C-106.72692083 10.75965994 -106.72692083 10.75965994 -103.1394043 8.41918945 C-98.36191128 6.52364875 -94.18303589 6.56932897 -89.08984375 6.6015625 C-88.08917374 6.59869232 -87.08850372 6.59582214 -86.05751038 6.59286499 C-83.94873486 6.59082934 -81.83994025 6.59632415 -79.73120117 6.60888672 C-76.50722011 6.62496399 -73.28448944 6.60901194 -70.06054688 6.58984375 C-68.00780974 6.59182594 -65.95507338 6.59566911 -63.90234375 6.6015625 C-62.45999611 6.59245346 -62.45999611 6.59245346 -60.98851013 6.5831604 C-56.03814701 6.63510498 -52.56055742 6.7398241 -48.5625 10 C-45.09469143 13.946127 -45.26803553 17.68686495 -45.359375 22.6953125 C-45.5625 25 -45.5625 25 -46.5625 28 C-44.9125 28 -43.2625 28 -41.5625 28 C-41.500625 27.278125 -41.43875 26.55625 -41.375 25.8125 C-39.740434 20.15438692 -34.66770781 17.21387543 -29.81640625 14.3359375 C-28.73166016 13.68882813 -27.64691406 13.04171875 -26.52929688 12.375 C-24.84416992 11.385 -24.84416992 11.385 -23.125 10.375 C-22.00544922 9.70726562 -20.88589844 9.03953125 -19.73242188 8.3515625 C-4.74470913 -0.54322251 -4.74470913 -0.54322251 0 0 Z M446.4375 12 C444.07495025 13.20550616 441.91620761 14.45492089 439.6875 15.875 C438.34784669 16.70473464 437.00799678 17.53415192 435.66796875 18.36328125 C434.97622559 18.79592285 434.28448242 19.22856445 433.57177734 19.67431641 C430.07382918 21.84702958 426.53562263 23.95187144 423 26.0625 C421.73027629 26.82389789 420.46072704 27.58558684 419.19140625 28.34765625 C418.28261719 28.89292969 417.37382813 29.43820313 416.4375 30 C416.78683594 30.47050781 417.13617187 30.94101562 417.49609375 31.42578125 C417.95113281 32.04839844 418.40617188 32.67101562 418.875 33.3125 C419.32746094 33.92738281 419.77992188 34.54226562 420.24609375 35.17578125 C421.4375 37 421.4375 37 422.4375 40 C409.5675 40 396.6975 40 383.4375 40 C382.81972746 44.32440781 382.2802109 48.39783132 382.01353455 52.72084045 C381.94484665 53.81248505 381.87615875 54.90412964 381.8053894 56.02885437 C381.73417877 57.20663956 381.66296814 58.38442474 381.58959961 59.59790039 C381.51142502 60.85415222 381.43325043 62.11040405 381.35270691 63.40472412 C381.13931241 66.83679488 380.9295416 70.2690779 380.72067332 73.70142674 C380.54529076 76.57853794 380.36820256 79.45554319 380.19114786 82.3325519 C379.77282553 89.13096544 379.35752887 95.92955924 378.9440918 102.72827148 C378.51952946 109.70901914 378.08976896 116.68943293 377.65742487 123.66970259 C377.28487975 129.68765882 376.91568933 135.70581474 376.54909331 141.72413629 C376.33079836 145.30723492 376.11128595 148.89024757 375.88850212 152.47307014 C375.63948094 156.48054005 375.39746503 160.48840524 375.15600586 164.49633789 C375.082771 165.65995346 375.00953613 166.82356903 374.93408203 168.02244568 C374.45993919 176.0225958 374.35927999 183.98673821 374.4375 192 C378.18304821 193.67686874 381.93409419 195.34078835 385.6875 197 C386.75097656 197.47695312 387.81445312 197.95390625 388.91015625 198.4453125 C389.93496094 198.89648438 390.95976563 199.34765625 392.015625 199.8125 C392.95825195 200.23144531 393.90087891 200.65039062 394.87207031 201.08203125 C397.61107277 202.22460263 397.61107277 202.22460263 401.4375 202 C403.0875 189.46 404.7375 176.92 406.4375 164 C406.7675 164 407.0975 164 407.4375 164 C408.14882745 166.54045519 408.85988557 169.08098234 409.56982422 171.62182617 C410.19595145 173.85369861 410.82657151 176.08431497 411.46142578 178.3137207 C413.1287395 184.19300018 414.71893875 190.07273322 416.14453125 196.015625 C416.42482178 197.13461182 416.7051123 198.25359863 416.99389648 199.40649414 C417.52802299 201.54730119 418.03538135 203.69501708 418.51196289 205.84936523 C419.85747153 211.105865 421.0629143 214.29410254 425.62890625 217.41796875 C427.21248109 218.31364203 428.81574221 219.17547493 430.4375 220 C431.14970703 220.39437256 431.86191406 220.78874512 432.59570312 221.19506836 C434.71688786 222.36562429 436.8569013 223.49515952 439 224.625 C448.16265202 229.56498226 456.29532521 235.54394315 464.4375 242 C465.75592005 238.04473985 464.82244585 234.98898024 463.97460938 231.02783203 C463.80733841 230.21612549 463.64006744 229.40441895 463.46772766 228.56811523 C463.10331686 226.80443314 462.73537083 225.04147868 462.36433411 223.27917862 C461.77747309 220.48986108 461.2005614 217.69865341 460.62634277 214.90670776 C459.19801261 207.9713538 457.7545242 201.03917854 456.30767822 194.10766602 C455.08593207 188.25383707 453.87178593 182.39854384 452.6686554 176.54085922 C452.10063582 173.79114592 451.52132973 171.04396227 450.94177246 168.29666138 C450.59404747 166.60821625 450.24688979 164.91965415 449.90039062 163.23095703 C449.73626175 162.46818451 449.57213287 161.70541199 449.4030304 160.91952515 C448.4692921 156.29147384 447.88793011 152.41248944 450.52563477 148.3059082 C450.97221436 147.80921631 451.41879395 147.31252441 451.87890625 146.80078125 C452.37600098 146.23665527 452.8730957 145.6725293 453.38525391 145.09130859 C453.91812012 144.50430176 454.45098633 143.91729492 455 143.3125 C456.10413589 142.06231956 457.20699794 140.81101295 458.30859375 139.55859375 C458.84726074 138.94999512 459.38592773 138.34139648 459.94091797 137.71435547 C462.55103208 134.72443356 464.98957784 131.60395709 467.44140625 128.484375 C468.89472057 126.67555326 470.38735201 124.89811145 471.90234375 123.140625 C483.14276329 110.0915966 492.67966246 94.89851468 491.8515625 77.05078125 C489.19502599 57.47762073 473.44188039 41.55382372 461.0859375 27.12890625 C459.30332426 25.0400492 457.56240291 22.92536989 455.8515625 20.77734375 C455.05492187 19.77832031 454.25828125 18.77929688 453.4375 17.75 C452.73625 16.85796875 452.035 15.9659375 451.3125 15.046875 C449.52039604 12.75766247 449.52039604 12.75766247 446.4375 12 Z M-7.765625 15.484375 C-8.58160156 16.00773437 -9.39757812 16.53109375 -10.23828125 17.0703125 C-11.08777344 17.62460937 -11.93726563 18.17890625 -12.8125 18.75 C-14.48346196 19.82953956 -16.15532283 20.90768914 -17.828125 21.984375 C-18.62798828 22.49935547 -19.42785156 23.01433594 -20.25195312 23.54492188 C-23.30270157 25.46614553 -26.41283991 27.24640546 -29.5625 29 C-29.15257812 29.53109375 -28.74265625 30.0621875 -28.3203125 30.609375 C-27.78148437 31.31578125 -27.24265625 32.0221875 -26.6875 32.75 C-26.15382813 33.44609375 -25.62015625 34.1421875 -25.0703125 34.859375 C-23.67011086 36.84722603 -22.58394735 38.79843386 -21.5625 41 C-22.23152344 40.9278125 -22.90054688 40.855625 -23.58984375 40.78125 C-29.91336235 40.170118 -36.15712519 39.93337483 -42.50390625 39.96875 C-43.6723407 39.97213379 -43.6723407 39.97213379 -44.86437988 39.97558594 C-46.76376175 39.9814145 -48.66313356 39.99037957 -50.5625 40 C-51.32793234 51.45818456 -52.09299323 62.91639386 -52.8575964 74.37463379 C-53.21274736 79.69670788 -53.56802021 85.01877378 -53.92358398 90.34082031 C-54.26753074 95.48905486 -54.61114116 100.63731176 -54.95453072 105.7855835 C-55.08476661 107.73729226 -55.21511815 109.68899332 -55.34559441 111.64068604 C-55.70082785 116.9549522 -56.05426325 122.26932952 -56.40363693 127.58398438 C-56.50839164 129.17711111 -56.61355854 130.7702108 -56.7191658 132.36328125 C-56.86360154 134.54935941 -57.00556858 136.73558318 -57.14672852 138.921875 C-57.22609146 140.1397168 -57.30545441 141.35755859 -57.38722229 142.61230469 C-57.63549681 147.4108523 -57.65408484 152.19688394 -57.5625 157 C-54.12445706 156.69329496 -50.68718713 156.3786405 -47.25 156.0625 C-46.27353516 155.97548828 -45.29707031 155.88847656 -44.29101562 155.79882812 C-43.35322266 155.71181641 -42.41542969 155.62480469 -41.44921875 155.53515625 C-40.58514404 155.456604 -39.72106934 155.37805176 -38.83081055 155.29711914 C-36.40163288 155.05212023 -36.40163288 155.05212023 -33.5625 154 C-32.98897052 149.39231599 -32.41942811 144.78416285 -31.85351562 140.17553711 C-31.66059114 138.60899674 -31.46659292 137.04258821 -31.27148438 135.47631836 C-30.99063765 133.22023077 -30.71370235 130.96369155 -30.4375 128.70703125 C-30.35000488 128.01100296 -30.26250977 127.31497467 -30.17236328 126.59785461 C-29.74127243 123.04338804 -29.46547377 119.58087419 -29.5625 116 C-28.9025 116 -28.2425 116 -27.5625 116 C-27.29300537 116.877771 -27.02351074 117.75554199 -26.74584961 118.65991211 C-25.62089287 121.83518201 -24.29835514 124.52320019 -22.62890625 127.44140625 C-22.06236328 128.43720703 -21.49582031 129.43300781 -20.91210938 130.45898438 C-20.32236328 131.48314453 -19.73261719 132.50730469 -19.125 133.5625 C-18.53912109 134.59052734 -17.95324219 135.61855469 -17.34960938 136.67773438 C-14.79755908 141.14744335 -12.2108522 145.58607967 -9.5625 150 C2.3175 149.67 14.1975 149.34 26.4375 149 C21.38141972 138.88783945 16.32892252 128.8709532 10.78125 119.03515625 C10.08128906 117.74158203 10.08128906 117.74158203 9.3671875 116.421875 C8.94679199 115.66487305 8.52639648 114.90787109 8.09326172 114.12792969 C7.4375 112 7.4375 112 8.21289062 109.8425293 C9.64616086 107.68605194 11.26550784 105.92750581 13.0625 104.0625 C23.18987874 92.86714313 30.83272691 79.1466098 30.58203125 63.80859375 C29.75168273 47.67290221 22.39766409 38.39404653 12.02636719 26.78125 C10.44622321 25.00977943 8.88290651 23.22445127 7.3203125 21.4375 C6.33968364 20.332319 5.35795969 19.22810844 4.375 18.125 C3.92229736 17.60695801 3.46959473 17.08891602 3.00317383 16.55517578 C1.87642393 15.3112029 0.66254642 14.14729905 -0.5625 13 C-4.00127961 13 -4.93610012 13.64884002 -7.765625 15.484375 Z M-270.5625 19 C-279.99606163 40.60508731 -279.99606163 40.60508731 -284.5625 63 C-266.4125 63 -248.2625 63 -229.5625 63 C-229.5625 63.66 -229.5625 64.32 -229.5625 65 C-232.74391828 66.08324365 -235.87516505 67.07714225 -239.140625 67.8828125 C-243.25990838 69.2763573 -246.6940459 70.6870764 -249.5625 74 C-250.67292566 77.44985954 -250.74876112 80.85180375 -250.86279297 84.45703125 C-250.92284452 85.51107651 -250.98289608 86.56512177 -251.04476738 87.65110779 C-251.1731646 89.92481413 -251.28859968 92.19928204 -251.39241791 94.47424316 C-251.6182067 99.15478524 -251.94730955 103.82585025 -252.27331734 108.50030518 C-252.66576121 114.18256488 -253.02187564 119.86707911 -253.38072062 125.55154419 C-253.50985265 127.594781 -253.63967224 129.63797303 -253.76971054 131.68115234 C-254.22602945 138.851247 -254.67989451 146.02149191 -255.13134766 153.19189453 C-255.54830982 159.81341485 -255.9708531 166.43456346 -256.39592373 173.05556774 C-256.76476309 178.80464688 -257.12965128 184.55396834 -257.49157703 190.30348682 C-257.70606635 193.70981381 -257.92203549 197.11602905 -258.14206314 200.52200317 C-259.44654523 220.74448087 -259.44654523 220.74448087 -259.5625 241 C-252.36682341 236.8337152 -245.48074678 232.29012349 -238.61767578 227.60327148 C-234.80548334 225.03415075 -231.00670468 222.63834311 -226.9140625 220.5390625 C-226.1813916 220.15983643 -225.4487207 219.78061035 -224.69384766 219.38989258 C-223.31410524 218.69243516 -221.92077107 218.02099268 -220.51318359 217.3815918 C-217.96902788 216.09372399 -215.91887557 214.95150917 -214.88709927 212.19670582 C-214.75270474 211.49280562 -214.61831022 210.78890543 -214.47984314 210.06367493 C-214.32400694 209.2581399 -214.16817074 208.45260487 -214.00761223 207.62265968 C-213.21321637 202.94197499 -212.49338331 198.2553939 -211.82250977 193.55541992 C-211.66122589 192.44506378 -211.49994202 191.33470764 -211.33377075 190.19070435 C-210.80395655 186.53774663 -210.27892955 182.88411784 -209.75390625 179.23046875 C-209.38311891 176.66803047 -209.0120148 174.10563801 -208.64060974 171.54328918 C-207.76346135 165.48684823 -206.88926144 159.42998871 -206.01658338 153.37290221 C-204.74525231 144.54992281 -203.46875365 135.72769087 -202.19238949 126.90543842 C-201.27465618 120.56166872 -200.35763505 114.21779936 -199.44300842 107.87358093 C-199.1059888 105.53835748 -198.76894815 103.20313706 -198.43188477 100.86791992 C-198.27230569 99.76003207 -198.11272661 98.65214422 -197.94831181 97.51068401 C-197.20257675 92.35029069 -196.4440303 87.19254525 -195.65084839 82.03921509 C-195.50950187 81.11758481 -195.36815535 80.19595453 -195.2225256 79.24639606 C-194.96121267 77.55143892 -194.6967498 75.8569628 -194.42836094 74.16311169 C-193.84066627 70.35321108 -193.5625 66.87785002 -193.5625 63 C-184.6525 63 -175.7425 63 -166.5625 63 C-164.57898148 57.71061728 -162.71500972 52.49747344 -161.08203125 47.10546875 C-160.86431564 46.39143387 -160.64660004 45.67739899 -160.42228699 44.94172668 C-159.96809245 43.44894397 -159.51524897 41.95574956 -159.0637207 40.4621582 C-158.37103211 38.17439514 -157.67107056 35.888938 -156.97070312 33.60351562 C-156.528205 32.14596709 -156.08613229 30.68828933 -155.64453125 29.23046875 C-155.33054131 28.20858711 -155.33054131 28.20858711 -155.01020813 27.1660614 C-154.15801011 24.32739086 -153.5625 21.98320801 -153.5625 19 C-192.1725 19 -230.7825 19 -270.5625 19 Z M-95.5625 19 C-97.05308842 21.98117685 -96.93908503 25.10881089 -97.13500977 28.38720703 C-97.20838058 29.52881287 -97.20838058 29.52881287 -97.28323364 30.69348145 C-97.44424071 33.21468305 -97.59908957 35.73622382 -97.75390625 38.2578125 C-97.86420022 40.00375724 -97.97487704 41.74967783 -98.08592224 43.49557495 C-98.3774385 48.09520407 -98.66373897 52.69514372 -98.94897461 57.29516602 C-99.24084391 61.98733954 -99.53761701 66.67920257 -99.83398438 71.37109375 C-100.41497105 80.58043101 -100.99045112 89.79010355 -101.5625 99 C-102.32780029 98.83701416 -103.09310059 98.67402832 -103.8815918 98.50610352 C-106.77674724 97.95955427 -109.43175561 97.90203922 -112.375 97.9375 C-113.35082031 97.94652344 -114.32664063 97.95554687 -115.33203125 97.96484375 C-116.06808594 97.97644531 -116.80414063 97.98804687 -117.5625 98 C-117.39234375 96.98808594 -117.2221875 95.97617188 -117.046875 94.93359375 C-115.39886139 84.92309483 -113.96406952 74.88734634 -112.64733887 64.82839966 C-112.46680914 63.45065679 -112.28477879 62.07310967 -112.10119629 60.69577026 C-111.83999923 58.73010484 -111.58591679 56.76349815 -111.33203125 54.796875 C-111.18354736 53.65573242 -111.03506348 52.51458984 -110.88208008 51.33886719 C-110.55026891 47.87221359 -110.50806814 44.48032352 -110.5625 41 C-116.24080078 40.97535295 -121.91907069 40.95716538 -127.59741211 40.94506836 C-129.53068585 40.94002744 -131.46395576 40.93319481 -133.3972168 40.92456055 C-136.16976872 40.91248435 -138.94227041 40.90676943 -141.71484375 40.90234375 C-142.58463364 40.89718246 -143.45442352 40.89202118 -144.35057068 40.88670349 C-146.42155814 40.88650815 -148.49244324 40.93791832 -150.5625 41 C-152.21620816 42.65370816 -151.86527438 44.67295536 -152.02442932 46.95462036 C-152.10153137 48.02815765 -152.17863342 49.10169495 -152.2580719 50.20776367 C-152.33863327 51.39619873 -152.41919464 52.58463379 -152.50219727 53.80908203 C-152.59012543 55.05309784 -152.67805359 56.29711365 -152.76864624 57.5788269 C-153.0097108 61.00505912 -153.2465578 64.43153154 -153.48125577 67.85820246 C-153.67817086 70.72504489 -153.87801562 73.5916799 -154.07788509 76.45831764 C-154.5504536 83.23641483 -155.01832529 90.01482499 -155.4831543 96.79345703 C-155.96066242 103.75603151 -156.44518226 110.71809133 -156.93341595 117.67992127 C-157.35338507 123.67137189 -157.76925536 129.66309741 -158.18187374 135.65505874 C-158.42783207 139.22657754 -158.67517057 142.79798532 -158.92630196 146.36914444 C-160.4264491 166.66329429 -160.4264491 166.66329429 -160.5625 187 C-154.66253152 185.85998604 -149.07845401 184.00038441 -143.375 182.125 C-142.26962891 181.77308594 -141.16425781 181.42117187 -140.02539062 181.05859375 C-138.97158203 180.71183594 -137.91777344 180.36507812 -136.83203125 180.0078125 C-135.86885986 179.69473145 -134.90568848 179.38165039 -133.91333008 179.05908203 C-131.25298038 178.11072465 -131.25298038 178.11072465 -129.5625 175 C-129.1366175 173.11233838 -128.79738356 171.20455608 -128.50927734 169.29101562 C-128.32924164 168.11970093 -128.14920593 166.94838623 -127.9637146 165.74157715 C-127.77717316 164.47591919 -127.59063171 163.21026123 -127.3984375 161.90625 C-127.20150299 160.60804321 -127.00456848 159.30983643 -126.80166626 157.97229004 C-126.38533657 155.22584415 -125.97392074 152.47872454 -125.56640625 149.73095703 C-125.04405555 146.20923667 -124.51325154 142.68886082 -123.97923851 139.16889191 C-123.47018735 135.81095269 -122.96548083 132.45236973 -122.4609375 129.09375 C-122.2703476 127.82809204 -122.07975769 126.56243408 -121.88339233 125.25842285 C-121.70966095 124.08710815 -121.53592957 122.91579346 -121.35693359 121.70898438 C-121.20308197 120.67656616 -121.04923035 119.64414795 -120.89071655 118.58044434 C-120.49941138 115.93753517 -120.49941138 115.93753517 -120.5625 113 C-114.6225 113 -108.6825 113 -102.5625 113 C-102.65337891 114.37140137 -102.74425781 115.74280273 -102.83789062 117.15576172 C-103.17663452 122.28071145 -103.51106262 127.40593551 -103.84423828 132.53125 C-103.98858242 134.74258929 -104.13407136 136.95385417 -104.28076172 139.16503906 C-104.49232708 142.35722931 -104.69967045 145.54967118 -104.90625 148.7421875 C-104.97187134 149.71864227 -105.03749268 150.69509705 -105.10510254 151.70114136 C-105.16516479 152.64136139 -105.22522705 153.58158142 -105.28710938 154.55029297 C-105.34040405 155.3630368 -105.39369873 156.17578064 -105.4486084 157.01315308 C-105.61356223 161.33912473 -105.5625 165.67088456 -105.5625 170 C-96.3225 167.36 -87.0825 164.72 -77.5625 162 C-74.95260275 143.7983961 -72.34444111 125.59654628 -69.73947144 107.39423656 C-68.52992877 98.94291769 -67.31959798 90.49171308 -66.10742188 82.04077148 C-65.05109694 74.6763651 -63.99624046 67.31175014 -62.9431591 59.94687921 C-62.38532684 56.04596994 -61.82675146 52.14517029 -61.26641846 48.24461937 C-60.73930924 44.57517895 -60.21416021 40.90546341 -59.69052887 37.23552513 C-59.40567384 35.242762 -59.11872716 33.25029821 -58.83172607 31.25784302 C-58.66344299 30.07573746 -58.49515991 28.8936319 -58.32177734 27.67570496 C-58.10054703 26.13124081 -58.10054703 26.13124081 -57.87484741 24.55557537 C-57.50184042 21.93279197 -57.50184042 21.93279197 -57.5625 19 C-70.1025 19 -82.6425 19 -95.5625 19 Z M87.4375 19 C88.0975 25.93 88.7575 32.86 89.4375 40 C87.49746094 39.98839844 85.55742187 39.97679688 83.55859375 39.96484375 C80.9973968 39.95546208 78.4361988 39.94636228 75.875 39.9375 C74.59818359 39.92912109 73.32136719 39.92074219 72.00585938 39.91210938 C70.76513672 39.90888672 69.52441406 39.90566406 68.24609375 39.90234375 C67.10970459 39.89710693 65.97331543 39.89187012 64.80249023 39.88647461 C61.28541433 40.00513095 57.90978855 40.44219489 54.4375 41 C52.7146786 49.34775642 50.992883 57.6957236 49.27225304 66.04393196 C48.47249465 69.92407815 47.67243602 73.80416181 46.87158203 77.68408203 C43.68158726 93.14008414 40.49702139 108.59735744 37.37770462 124.06780624 C36.98549889 126.01042502 36.59060475 127.9525004 36.19564819 129.89456177 C35.84671005 131.63260574 35.84671005 131.63260574 35.49072266 133.40576172 C35.28629547 134.41855194 35.08186829 135.43134216 34.87124634 136.474823 C34.35285528 139.06575682 34.35285528 139.06575682 34.4375 142 C48.7925 141.01 48.7925 141.01 63.4375 140 C63.911875 137.6075 64.38625 135.215 64.875 132.75 C65.02251709 132.02393555 65.17003418 131.29787109 65.32202148 130.54980469 C66.52542148 124.29960025 66.89812302 118.47252378 67.4375 112 C77.3375 111.67 87.2375 111.34 97.4375 111 C97.9325 114.96 97.9325 114.96 98.4375 119 C98.85238442 120.86307475 99.30722567 122.71797579 99.8125 124.55859375 C100.07546875 125.52087891 100.3384375 126.48316406 100.609375 127.47460938 C101.01929688 128.94124023 101.01929688 128.94124023 101.4375 130.4375 C101.84742188 131.94473633 101.84742188 131.94473633 102.265625 133.48242188 C103.19041679 138.08605786 103.19041679 138.08605786 105.4375 142 C107.5083472 142.1584265 109.58428029 142.25124422 111.66015625 142.31640625 C112.92021484 142.35830078 114.18027344 142.40019531 115.47851562 142.44335938 C116.81900736 142.48317596 118.1595022 142.52288814 119.5 142.5625 C120.84441523 142.60568042 122.1888166 142.64929456 123.53320312 142.69335938 C126.8345234 142.79985358 130.13592236 142.9018646 133.4375 143 C131.73716519 115.76499827 129.96536006 88.53456539 128.14901733 61.30706787 C127.92392575 57.93076037 127.70074617 54.55433451 127.47915649 51.17779541 C127.21475974 47.15061403 126.94648241 43.12370938 126.6752758 39.09698105 C126.57474876 37.59484764 126.47558409 36.09262239 126.37784004 34.59030533 C126.24305443 32.52250155 126.10335085 30.45508682 125.96240234 28.38769531 C125.88484711 27.22151672 125.80729187 26.05533813 125.72738647 24.8538208 C125.53542112 21.92920258 125.53542112 21.92920258 124.4375 19 C112.2275 19 100.0175 19 87.4375 19 Z M155.11035156 27.15112305 C154.55831055 28.09125244 154.00626953 29.03138184 153.4375 30 C152.5027819 31.23306742 151.55832426 32.45891575 150.59765625 33.671875 C149.90542969 34.68765625 149.21320313 35.7034375 148.5 36.75 C147.78972656 37.77609375 147.07945312 38.8021875 146.34765625 39.859375 C141.09936543 48.48846666 140.43213815 56.16111898 141.4375 66 C143.76956461 74.29178529 149.95362974 80.5885099 155.4375 87 C156.94552415 88.84764639 158.44600823 90.70148245 159.9375 92.5625 C160.5871875 93.36816406 161.236875 94.17382812 161.90625 95.00390625 C165.60352177 99.8235641 164.923884 105.1494953 164.4375 111 C161.61079273 123.43070066 153.48340977 134.28912393 144.4375 143 C147.28712018 143.94987339 149.5749764 144.27818966 152.55078125 144.53515625 C153.55173828 144.62216797 154.55269531 144.70917969 155.58398438 144.79882812 C156.62876953 144.88583984 157.67355469 144.97285156 158.75 145.0625 C159.78318359 145.15337891 160.81636719 145.24425781 161.88085938 145.33789062 C164.73184753 145.58111155 167.58370406 145.79296518 170.4375 146 C171.58863281 146.10570312 172.73976563 146.21140625 173.92578125 146.3203125 C176.55883718 146.21521311 176.55883718 146.21521311 178.4921875 144.26953125 C189.39921799 129.54738066 197.68526674 116.78334571 196.4375 98 C194.84154079 90.0788789 190.50433759 84.21872441 185.4777832 78.05322266 C172.32631507 61.87762013 172.32631507 61.87762013 171.8125 53.75 C172.56897625 49.21114249 173.92890193 46.83667939 176.4375 43 C177.1177367 41.67353844 177.79242261 40.34391123 178.4375 39 C179.0975 39 179.7575 39 180.4375 39 C180.1075 43.62 179.7775 48.24 179.4375 53 C185.3775 53 191.3175 53 197.4375 53 C199.20940859 49.14632445 200.98006228 45.29208063 202.75 41.4375 C203.24951172 40.35146484 203.74902344 39.26542969 204.26367188 38.14648438 C205.66161203 35.10064126 207.05174842 32.05140488 208.4375 29 C208.77571777 28.26281738 209.11393555 27.52563477 209.46240234 26.76611328 C210.71326799 23.97096907 211.4375 22.10494197 211.4375 19 C204.78568493 18.71944324 198.13540962 18.52780444 191.47900391 18.39575195 C189.21865851 18.34067279 186.95870081 18.26578046 184.69970703 18.17016602 C167.57637537 16.96001073 167.57637537 16.96001073 155.11035156 27.15112305 Z M257.4375 19 C256.36619519 30.97027466 256.36619519 30.97027466 255.3046875 42.94140625 C254.87314102 47.83279458 254.44051334 52.72406843 254.00097656 57.61474609 C253.64620524 61.56306744 253.29667566 65.51182262 252.95059204 69.46091461 C252.81847047 70.95834772 252.68454364 72.45562282 252.54867554 73.95272064 C251.75987108 82.65926476 251.29350036 91.25202192 251.4375 100 C244.5075 99.505 244.5075 99.505 237.4375 99 C237.67984375 97.45957031 237.9221875 95.91914062 238.171875 94.33203125 C240.10850805 81.94108492 241.97978493 69.54078722 243.75 57.125 C243.93336914 55.87823486 244.11673828 54.63146973 244.30566406 53.34692383 C244.46905273 52.18314209 244.63244141 51.01936035 244.80078125 49.8203125 C245.02181519 48.27754639 245.02181519 48.27754639 245.24731445 46.70361328 C245.59527794 43.7527383 245.59527794 43.7527383 244.4375 40 C233.5475 39.67 222.6575 39.34 211.4375 39 C210.62275053 44.53109079 210.62275053 44.53109079 210.12742615 50.04370117 C210.08398071 50.76367783 210.04053528 51.48365448 209.99577332 52.22544861 C209.9526149 52.99023026 209.90945648 53.7550119 209.86499023 54.54296875 C209.81607635 55.36845718 209.76716248 56.19394562 209.71676636 57.04444885 C209.55681944 59.7586304 209.40125383 62.47304089 209.24609375 65.1875 C209.13555662 67.09213023 209.02488233 68.9967525 208.91407776 70.90136719 C208.6826424 74.8923019 208.45348972 78.88335991 208.22583008 82.87451172 C207.93604199 87.95015421 207.63968606 93.02538825 207.34144497 98.10054016 C207.1110502 102.03671095 206.88470743 105.97310737 206.65947151 109.90957642 C206.55197616 111.77844972 206.44316013 113.64724762 206.33291435 115.51596069 C205.69528325 126.36017154 205.28012694 137.13525796 205.4375 148 C208.47830421 148.50579714 211.51996646 149.00480759 214.5625 149.5 C215.4184375 149.64308594 216.274375 149.78617188 217.15625 149.93359375 C221.63421505 150.65695734 225.88313435 151.17918816 230.4375 151 C231.89645692 143.3802744 233.0774268 135.75712787 234.0625 128.0625 C234.1965625 127.04865234 234.330625 126.03480469 234.46875 124.99023438 C234.99374317 120.9376085 235.4375 117.09486546 235.4375 113 C240.0575 113 244.6775 113 249.4375 113 C249.293125 114.69125 249.14875 116.3825 249 118.125 C247.979263 130.46299924 247.19475246 142.61987554 247.4375 155 C259.8125 157.475 259.8125 157.475 272.4375 160 C275.21888713 142.8370325 277.84706745 125.66176417 280.328125 108.453125 C280.68106783 106.01217741 281.03407618 103.57123929 281.387146 101.13031006 C282.11783715 96.07518445 282.8470111 91.01984278 283.57519531 85.96435547 C284.50845731 79.48673985 285.44678285 73.00986833 286.38632584 66.53316116 C287.11277656 61.52016782 287.83602131 56.50671587 288.55834198 51.49312592 C288.90329387 49.10234082 289.24937826 46.71171885 289.59662628 44.32126617 C290.07851161 41.00143419 290.55593767 37.68099041 291.03222656 34.36035156 C291.24721802 32.88933235 291.24721802 32.88933235 291.46655273 31.38859558 C291.59539856 30.48388016 291.72424438 29.57916473 291.85699463 28.64703369 C291.96978886 27.86556095 292.08258308 27.08408821 292.19879532 26.27893448 C292.45168997 23.86452713 292.4375 21.42761582 292.4375 19 C280.8875 19 269.3375 19 257.4375 19 Z M308.4375 19 C305.97513063 25.15592343 303.62859673 31.13198768 301.6875 37.4375 C301.46707031 38.13037109 301.24664063 38.82324219 301.01953125 39.53710938 C300.10742864 42.46886775 299.4375 44.91074741 299.4375 48 C302.89972615 49.06723961 306.07789266 49.10173486 309.6875 49.0625 C311.30398438 49.04896484 311.30398438 49.04896484 312.953125 49.03515625 C314.18289063 49.01775391 314.18289063 49.01775391 315.4375 49 C314.4375 51 314.4375 51 311.49609375 52.0703125 C310.30113281 52.41835938 309.10617187 52.76640625 307.875 53.125 C306.07869141 53.65480469 306.07869141 53.65480469 304.24609375 54.1953125 C302.85583984 54.59363281 302.85583984 54.59363281 301.4375 55 C298.59380449 95.04591749 298.59380449 95.04591749 295.88320923 135.10101318 C295.75354994 137.06302728 295.62300702 139.0249832 295.49154663 140.98687744 C295.30936978 143.71113367 295.13070389 146.43559693 294.953125 149.16015625 C294.90019791 149.9441832 294.84727081 150.72821014 294.79273987 151.53599548 C294.48324624 156.36799065 294.39223751 161.15794224 294.4375 166 C295.17347412 166.18473877 295.90944824 166.36947754 296.66772461 166.55981445 C317.26600033 171.77715651 337.35846594 178.0573927 357.4375 185 C357.86887823 180.42884403 358.29597507 175.85731492 358.71923828 171.28540039 C358.86359108 169.73255821 359.00908035 168.17982122 359.15576172 166.62719727 C359.36730445 164.38585168 359.57465579 162.14415024 359.78125 159.90234375 C359.84687134 159.21663803 359.91249268 158.53093231 359.98010254 157.82444763 C360.37377262 153.49754217 360.4375 149.3754465 360.4375 145 C350.8675 142.36 341.2975 139.72 331.4375 137 C331.4375 129 331.4375 129 333.4375 114 C344.3275 113.67 355.2175 113.34 366.4375 113 C367.64837709 107.55105312 368.77527442 102.36058779 369.5625 96.875 C369.73007812 95.73804687 369.89765625 94.60109375 370.0703125 93.4296875 C370.44544091 89.92582851 370.50021598 86.52105417 370.4375 83 C367.07198877 81.87816292 364.34689768 81.79199032 360.80078125 81.68359375 C359.50205078 81.64169922 358.20332031 81.59980469 356.86523438 81.55664062 C355.49349239 81.51683013 354.12174756 81.47711784 352.75 81.4375 C351.36652355 81.39429165 349.98305973 81.35067661 348.59960938 81.30664062 C345.21234281 81.20041972 341.82500201 81.09837642 338.4375 81 C338.61925781 79.91900024 338.61925781 79.91900024 338.8046875 78.81616211 C339.3547991 75.52422026 339.89621859 72.23090479 340.4375 68.9375 C340.62828125 67.80376953 340.8190625 66.67003906 341.015625 65.50195312 C341.92429524 59.9363479 342.69951086 54.64142133 342.4375 49 C343.22769531 49.01160156 344.01789062 49.02320312 344.83203125 49.03515625 C355.0654908 49.11702393 365.22525328 48.60968637 375.4375 48 C377.08168728 42.64566837 378.16959383 37.33849583 379.0625 31.8125 C379.1965625 31.01908203 379.330625 30.22566406 379.46875 29.40820312 C380.05621452 25.83845696 380.4375 22.64269822 380.4375 19 C356.6775 19 332.9175 19 308.4375 19 Z M360.3125 60.5 C358.39050781 60.63921875 358.39050781 60.63921875 356.4296875 60.78125 C354.94855469 60.88953125 354.94855469 60.88953125 353.4375 61 C353.1075 63.64 352.7775 66.28 352.4375 69 C355.99795177 70.18681726 358.87558337 70.09689832 362.625 70.0625 C363.89730469 70.05347656 365.16960938 70.04445313 366.48046875 70.03515625 C367.45628906 70.02355469 368.43210937 70.01195313 369.4375 70 C369.4375 66.7 369.4375 63.4 369.4375 60 C366.38487058 60 363.3565448 60.27861492 360.3125 60.5 Z M191.4375 66 C192.24597729 67.16945792 193.05939112 68.33550461 193.875 69.5 C194.32746094 70.1496875 194.77992188 70.799375 195.24609375 71.46875 C195.63925781 71.9740625 196.03242188 72.479375 196.4375 73 C196.7675 73 197.0975 73 197.4375 73 C197.4375 70.69 197.4375 68.38 197.4375 66 C195.4575 66 193.4775 66 191.4375 66 Z M142.4375 91 C142.02454784 102.08088291 143.27459121 112.99566626 144.4375 124 C149.19401826 119.40698962 152.58199345 113.20891202 153.3125 106.5625 C153.00186559 100.14272227 147.73076989 95.34196482 143.4375 91 C143.1075 91 142.7775 91 142.4375 91 Z M28.4375 103 C25.83989885 105.85102565 23.43092214 108.69026921 21.4375 112 C21.92454696 116.3022481 23.87306532 118.64044731 26.4375 122 C26.96910457 119.58525383 27.48804766 117.16891893 28 114.75 C28.15146484 114.06808594 28.30292969 113.38617188 28.45898438 112.68359375 C29.18983495 109.18230962 29.75953546 106.39701827 28.4375 103 Z M343.4375 125 C343.4375 125.99 343.4375 126.98 343.4375 128 C346.7278223 129.00446104 350.01996822 130.00280756 353.3125 131 C354.24964844 131.28617188 355.18679688 131.57234375 356.15234375 131.8671875 C357.04824219 132.13789063 357.94414063 132.40859375 358.8671875 132.6875 C359.69460449 132.93886719 360.52202148 133.19023437 361.37451172 133.44921875 C363.40367846 134.08598243 363.40367846 134.08598243 365.4375 134 C365.4375 131.03 365.4375 128.06 365.4375 125 C358.1775 125 350.9175 125 343.4375 125 Z " fill="#070707" transform="translate(296.5625,0)"/>
<path d="M0 0 C3.90570255 1.76957397 5.36464707 3.60745494 7.6875 7.25 C8.37585938 8.32636719 9.06421875 9.40273438 9.7734375 10.51171875 C10.13405273 11.08196777 10.49466797 11.6522168 10.86621094 12.23974609 C12.01571876 14.02440403 13.20771085 15.77288498 14.4140625 17.51953125 C20.38155712 26.2610067 25.19442213 35.05113049 24 46 C21.78607045 57.72784303 14.42292484 65.93638017 6.46777344 74.421875 C4.69392608 76.32908547 2.94577309 78.25880756 1.1953125 80.1875 C-0.16085384 81.66722092 -1.51762668 83.1463862 -2.875 84.625 C-3.52984375 85.34896973 -4.1846875 86.07293945 -4.859375 86.81884766 C-5.48070312 87.48964355 -6.10203125 88.16043945 -6.7421875 88.8515625 C-7.2976123 89.45822754 -7.85303711 90.06489258 -8.42529297 90.68994141 C-10 92 -10 92 -13 92 C-8.72046544 61.32554845 -4.40228157 30.65708796 0 0 Z M8 32 C7.46626918 35.24801825 6.95028732 38.49861491 6.4375 41.75 C6.28603516 42.67039062 6.13457031 43.59078125 5.97851562 44.5390625 C5.83994141 45.42851563 5.70136719 46.31796875 5.55859375 47.234375 C5.42767334 48.05131836 5.29675293 48.86826172 5.16186523 49.70996094 C4.99568117 52.06110207 5.29740455 53.76426496 6 56 C10.59690043 50.41804947 11.54300483 45.89996635 11.46875 38.734375 C10.94900269 35.7025157 10.03000944 34.26756374 8 32 Z " fill="#0A0A0A" transform="translate(720,41)"/>
<path d="M0 0 C5.95978231 2.82370429 9.61246704 7.59494287 12.875 13.25 C15.80693039 23.0231013 15.48721339 30.80121256 11 40 C7.00208816 46.8351396 1.65716473 53.55137333 -5 58 C-5.99 58 -6.98 58 -8 58 C-5.7147645 38.60822578 -2.89855047 19.3076145 0 0 Z " fill="#0D0D0D" transform="translate(277,42)"/>
<path d="M0 0 C1.32 0 2.64 0 4 0 C4.85858441 7.1711468 5.71261063 14.3428259 6.56347656 21.51489258 C6.85344303 23.95447063 7.14445109 26.39392512 7.43652344 28.83325195 C7.85626009 32.34033725 8.27224377 35.84785048 8.6875 39.35546875 C8.81874268 40.44522507 8.94998535 41.53498138 9.08520508 42.65776062 C9.26539185 44.18878166 9.26539185 44.18878166 9.44921875 45.75073242 C9.60910278 47.09309212 9.60910278 47.09309212 9.7722168 48.46257019 C9.99911382 50.99012828 10.04019766 53.46378787 10 56 C7.64575325 56.02726927 5.29183038 56.04696719 2.9375 56.0625 C0.97103516 56.07990234 0.97103516 56.07990234 -1.03515625 56.09765625 C-4.8163519 56.00452335 -8.27920707 55.61448726 -12 55 C-10.45939851 44.64471476 -8.25948287 34.43626842 -6.05883789 24.20532227 C-5.43089911 21.2817676 -4.80998077 18.35677622 -4.18945312 15.43164062 C-3.79208585 13.57543105 -3.39431459 11.7193079 -2.99609375 9.86328125 C-2.81066513 8.98738846 -2.62523651 8.11149567 -2.43418884 7.20906067 C-1.11468849 1.11468849 -1.11468849 1.11468849 0 0 Z " fill="#101010" transform="translate(385,44)"/>
<path d="M0 0 C16.5 0 33 0 50 0 C49.67 1.32 49.34 2.64 49 4 C48.505 3.01 48.505 3.01 48 2 C32.16 2 16.32 2 0 2 C0 1.34 0 0.68 0 0 Z " fill="#303030" transform="translate(460,17)"/>
<path d="M0 0 C0.66 0.33 1.32 0.66 2 1 C2.6328125 3.28515625 2.6328125 3.28515625 3.125 6.0625 C3.29257812 6.98160156 3.46015625 7.90070313 3.6328125 8.84765625 C3.75398437 9.55792969 3.87515625 10.26820313 4 11 C3.01 10.01 2.02 9.02 1 8 C0.01 9.32 -0.98 10.64 -2 12 C-1.85962479 10.18706911 -1.71255111 8.3746557 -1.5625 6.5625 C-1.48128906 5.55316406 -1.40007813 4.54382813 -1.31640625 3.50390625 C-1 1 -1 1 0 0 Z " fill="#434343" transform="translate(703,163)"/>
<path d="M0 0 C3.3 0 6.6 0 10 0 C9.67 0.99 9.34 1.98 9 3 C6.69 3.33 4.38 3.66 2 4 C2.66 3.67 3.32 3.34 4 3 C4 2.34 4 1.68 4 1 C2.68 0.67 1.36 0.34 0 0 Z " fill="#444444" transform="translate(602,49)"/>
<path d="M0 0 C0.66 0 1.32 0 2 0 C2 2.64 2 5.28 2 8 C1.34 8 0.68 8 0 8 C-0.33 7.01 -0.66 6.02 -1 5 C-1.99 5 -2.98 5 -4 5 C-2.71937515 3.2925002 -1.38232443 1.62626404 0 0 Z " fill="#464646" transform="translate(475,39)"/>
<path d="M0 0 C3.81684226 1.55500981 6.19195732 4.03595495 9 7 C8.67 7.66 8.34 8.32 8 9 C7.236875 8.175 6.47375 7.35 5.6875 6.5 C3.24565858 3.65944803 3.24565858 3.65944803 0 4 C0 2.68 0 1.36 0 0 Z " fill="#3F3F3F" transform="translate(277,42)"/>
<path d="M0 0 C0.66 0 1.32 0 2 0 C2.66 1.98 3.32 3.96 4 6 C3.01 6 2.02 6 1 6 C0.34 6.99 -0.32 7.98 -1 9 C-0.67 6.03 -0.34 3.06 0 0 Z " fill="#505050" transform="translate(267,116)"/>
<path d="M0 0 C1.32 0.66 2.64 1.32 4 2 C3.67 2.66 3.34 3.32 3 4 C2.34 3.67 1.68 3.34 1 3 C1 4.98 1 6.96 1 9 C0.34 9 -0.32 9 -1 9 C-0.67 6.03 -0.34 3.06 0 0 Z " fill="#575757" transform="translate(720,41)"/>
</svg>
